<?xml version="1.0" encoding="us-ascii" standalone="no"?><svg xmlns="http://www.w3.org/2000/svg" xmlns:xlink="http://www.w3.org/1999/xlink" contentStyleType="text/css" height="746px" preserveAspectRatio="none" style="width:842px;height:746px;background:#FFFFFF;" version="1.1" viewBox="0 0 842 746" width="842px" zoomAndPan="magnify"><defs/><g><rect fill="#FFFFFF" height="610.0023" style="stroke:#181818;stroke-width:1.0;" width="10" x="34.5" y="80.7739"/><rect fill="#FFFFFF" height="292.6481" style="stroke:#181818;stroke-width:1.0;" width="10" x="331.5" y="398.1281"/><rect fill="#FFFFFF" height="31.706" style="stroke:#181818;stroke-width:1.0;" width="10" x="601.5" y="117.4799"/><rect fill="#FFFFFF" height="14" style="stroke:#181818;stroke-width:1.0;" width="10" x="601.5" y="352.4221"/><rect fill="#FFFFFF" height="31.706" style="stroke:#181818;stroke-width:1.0;" width="10" x="601.5" y="429.8341"/><rect fill="#FFFFFF" height="31.706" style="stroke:#181818;stroke-width:1.0;" width="10" x="725" y="180.892"/><rect fill="#FFFFFF" height="31.706" style="stroke:#181818;stroke-width:1.0;" width="10" x="807" y="289.01"/><rect fill="#FFFFFF" height="31.706" style="stroke:#181818;stroke-width:1.0;" width="10" x="807" y="582.6582"/><line style="stroke:#181818;stroke-width:0.5;stroke-dasharray:5.0,5.0;" x1="39" x2="39" y1="39.0679" y2="708.7762"/><line style="stroke:#181818;stroke-width:0.5;stroke-dasharray:5.0,5.0;" x1="336" x2="336" y1="39.0679" y2="708.7762"/><line style="stroke:#181818;stroke-width:0.5;stroke-dasharray:5.0,5.0;" x1="606.5" x2="606.5" y1="39.0679" y2="708.7762"/><line style="stroke:#181818;stroke-width:0.5;stroke-dasharray:5.0,5.0;" x1="729.5" x2="729.5" y1="39.0679" y2="708.7762"/><line style="stroke:#181818;stroke-width:0.5;stroke-dasharray:5.0,5.0;" x1="811.5" x2="811.5" y1="39.0679" y2="708.7762"/><rect fill="#E2E2F0" height="33.0679" rx="2.5" ry="2.5" style="stroke:#181818;stroke-width:0.5;" width="69" x="5" y="5"/><text fill="#000000" font-family="sans-serif" font-size="14" lengthAdjust="spacing" textLength="55" x="12" y="26.9659">Attacker</text><rect fill="#E2E2F0" height="33.0679" rx="2.5" ry="2.5" style="stroke:#181818;stroke-width:0.5;" width="69" x="5" y="707.7762"/><text fill="#000000" font-family="sans-serif" font-size="14" lengthAdjust="spacing" textLength="55" x="12" y="729.7421">Attacker</text><rect fill="#E2E2F0" height="33.0679" rx="2.5" ry="2.5" style="stroke:#181818;stroke-width:0.5;" width="57" x="308" y="5"/><text fill="#000000" font-family="sans-serif" font-size="14" lengthAdjust="spacing" textLength="43" x="315" y="26.9659">Server</text><rect fill="#E2E2F0" height="33.0679" rx="2.5" ry="2.5" style="stroke:#181818;stroke-width:0.5;" width="57" x="308" y="707.7762"/><text fill="#000000" font-family="sans-serif" font-size="14" lengthAdjust="spacing" textLength="43" x="315" y="729.7421">Server</text><rect fill="#E2E2F0" height="33.0679" rx="2.5" ry="2.5" style="stroke:#181818;stroke-width:0.5;" width="132" x="540.5" y="5"/><text fill="#000000" font-family="sans-serif" font-size="14" lengthAdjust="spacing" textLength="118" x="547.5" y="26.9659">FileSystemLibrary</text><rect fill="#E2E2F0" height="33.0679" rx="2.5" ry="2.5" style="stroke:#181818;stroke-width:0.5;" width="132" x="540.5" y="707.7762"/><text fill="#000000" font-family="sans-serif" font-size="14" lengthAdjust="spacing" textLength="118" x="547.5" y="729.7421">FileSystemLibrary</text><rect fill="#E2E2F0" height="33.0679" rx="2.5" ry="2.5" style="stroke:#181818;stroke-width:0.5;" width="95" x="682.5" y="5"/><text fill="#000000" font-family="sans-serif" font-size="14" lengthAdjust="spacing" textLength="81" x="689.5" y="26.9659">JSONLibrary</text><rect fill="#E2E2F0" height="33.0679" rx="2.5" ry="2.5" style="stroke:#181818;stroke-width:0.5;" width="95" x="682.5" y="707.7762"/><text fill="#000000" font-family="sans-serif" font-size="14" lengthAdjust="spacing" textLength="81" x="689.5" y="729.7421">JSONLibrary</text><rect fill="#E2E2F0" height="33.0679" rx="2.5" ry="2.5" style="stroke:#181818;stroke-width:0.5;" width="49" x="787.5" y="5"/><text fill="#000000" font-family="sans-serif" font-size="14" lengthAdjust="spacing" textLength="35" x="794.5" y="26.9659">SHA1</text><rect fill="#E2E2F0" height="33.0679" rx="2.5" ry="2.5" style="stroke:#181818;stroke-width:0.5;" width="49" x="787.5" y="707.7762"/><text fill="#000000" font-family="sans-serif" font-size="14" lengthAdjust="spacing" textLength="35" x="794.5" y="729.7421">SHA1</text><rect fill="#FFFFFF" height="610.0023" style="stroke:#181818;stroke-width:1.0;" width="10" x="34.5" y="80.7739"/><rect fill="#FFFFFF" height="292.6481" style="stroke:#181818;stroke-width:1.0;" width="10" x="331.5" y="398.1281"/><rect fill="#FFFFFF" height="31.706" style="stroke:#181818;stroke-width:1.0;" width="10" x="601.5" y="117.4799"/><rect fill="#FFFFFF" height="14" style="stroke:#181818;stroke-width:1.0;" width="10" x="601.5" y="352.4221"/><rect fill="#FFFFFF" height="31.706" style="stroke:#181818;stroke-width:1.0;" width="10" x="601.5" y="429.8341"/><rect fill="#FFFFFF" height="31.706" style="stroke:#181818;stroke-width:1.0;" width="10" x="725" y="180.892"/><rect fill="#FFFFFF" height="31.706" style="stroke:#181818;stroke-width:1.0;" width="10" x="807" y="289.01"/><rect fill="#FFFFFF" height="31.706" style="stroke:#181818;stroke-width:1.0;" width="10" x="807" y="582.6582"/><line style="stroke:#181818;stroke-width:1.0;" x1="39.5" x2="86.5" y1="67.7739" y2="67.7739"/><line style="stroke:#181818;stroke-width:1.0;" x1="86.5" x2="86.5" y1="67.7739" y2="80.7739"/><line style="stroke:#181818;stroke-width:1.0;" x1="45.5" x2="86.5" y1="80.7739" y2="80.7739"/><polygon fill="#181818" points="55.5,76.7739,45.5,80.7739,55.5,84.7739,51.5,80.7739" style="stroke:#181818;stroke-width:1.0;"/><text fill="#000000" font-family="sans-serif" font-size="13" lengthAdjust="spacing" textLength="229" x="51.5" y="61.9649">tamperMessageTry(messageLocation)</text><polygon fill="#181818" points="589.5,113.4799,599.5,117.4799,589.5,121.4799,593.5,117.4799" style="stroke:#181818;stroke-width:1.0;"/><line style="stroke:#181818;stroke-width:1.0;" x1="44.5" x2="595.5" y1="117.4799" y2="117.4799"/><text fill="#000000" font-family="sans-serif" font-size="13" lengthAdjust="spacing" textLength="208" x="51.5" y="111.6709">extractMessage(messageLocation)</text><polygon fill="#181818" points="55.5,145.186,45.5,149.186,55.5,153.186,51.5,149.186" style="stroke:#181818;stroke-width:1.0;"/><line style="stroke:#181818;stroke-width:1.0;stroke-dasharray:2.0,2.0;" x1="49.5" x2="605.5" y1="149.186" y2="149.186"/><text fill="#000000" font-family="sans-serif" font-size="13" lengthAdjust="spacing" textLength="103" x="61.5" y="143.377">message content</text><polygon fill="#181818" points="713,176.892,723,180.892,713,184.892,717,180.892" style="stroke:#181818;stroke-width:1.0;"/><line style="stroke:#181818;stroke-width:1.0;" x1="44.5" x2="719" y1="180.892" y2="180.892"/><text fill="#000000" font-family="sans-serif" font-size="13" lengthAdjust="spacing" textLength="123" x="51.5" y="175.083">Parse JSON message</text><polygon fill="#181818" points="55.5,208.598,45.5,212.598,55.5,216.598,51.5,212.598" style="stroke:#181818;stroke-width:1.0;"/><line style="stroke:#181818;stroke-width:1.0;stroke-dasharray:2.0,2.0;" x1="49.5" x2="729" y1="212.598" y2="212.598"/><text fill="#000000" font-family="sans-serif" font-size="13" lengthAdjust="spacing" textLength="115" x="61.5" y="206.789">Parsed JSON object</text><line style="stroke:#181818;stroke-width:1.0;" x1="44.5" x2="86.5" y1="244.304" y2="244.304"/><line style="stroke:#181818;stroke-width:1.0;" x1="86.5" x2="86.5" y1="244.304" y2="257.304"/><line style="stroke:#181818;stroke-width:1.0;" x1="45.5" x2="86.5" y1="257.304" y2="257.304"/><polygon fill="#181818" points="55.5,253.304,45.5,257.304,55.5,261.304,51.5,257.304" style="stroke:#181818;stroke-width:1.0;"/><text fill="#000000" font-family="sans-serif" font-size="13" lengthAdjust="spacing" textLength="194" x="51.5" y="238.495">Modify "recipient" and "amount"</text><polygon fill="#181818" points="795,285.01,805,289.01,795,293.01,799,289.01" style="stroke:#181818;stroke-width:1.0;"/><line style="stroke:#181818;stroke-width:1.0;" x1="44.5" x2="801" y1="289.01" y2="289.01"/><text fill="#000000" font-family="sans-serif" font-size="13" lengthAdjust="spacing" textLength="139" x="51.5" y="283.201">hash(new forged JSON)</text><polygon fill="#181818" points="55.5,316.716,45.5,320.716,55.5,324.716,51.5,320.716" style="stroke:#181818;stroke-width:1.0;"/><line style="stroke:#181818;stroke-width:1.0;stroke-dasharray:2.0,2.0;" x1="49.5" x2="811" y1="320.716" y2="320.716"/><text fill="#000000" font-family="sans-serif" font-size="13" lengthAdjust="spacing" textLength="56" x="61.5" y="314.907">newHash</text><polygon fill="#181818" points="589.5,348.4221,599.5,352.4221,589.5,356.4221,593.5,352.4221" style="stroke:#181818;stroke-width:1.0;"/><line style="stroke:#181818;stroke-width:1.0;" x1="44.5" x2="595.5" y1="352.4221" y2="352.4221"/><text fill="#000000" font-family="sans-serif" font-size="13" lengthAdjust="spacing" textLength="146" x="51.5" y="346.6131">Write forged transaction</text><polygon fill="#181818" points="55.5,362.4221,45.5,366.4221,55.5,370.4221,51.5,366.4221" style="stroke:#181818;stroke-width:1.0;"/><line style="stroke:#181818;stroke-width:1.0;stroke-dasharray:2.0,2.0;" x1="49.5" x2="605.5" y1="366.4221" y2="366.4221"/><polygon fill="#181818" points="319.5,394.1281,329.5,398.1281,319.5,402.1281,323.5,398.1281" style="stroke:#181818;stroke-width:1.0;"/><line style="stroke:#181818;stroke-width:1.0;" x1="44.5" x2="325.5" y1="398.1281" y2="398.1281"/><text fill="#000000" font-family="sans-serif" font-size="13" lengthAdjust="spacing" textLength="268" x="51.5" y="392.3191">checkMac(jsonMessageTampered, newHash)</text><polygon fill="#181818" points="589.5,425.8341,599.5,429.8341,589.5,433.8341,593.5,429.8341" style="stroke:#181818;stroke-width:1.0;"/><line style="stroke:#181818;stroke-width:1.0;" x1="341.5" x2="595.5" y1="429.8341" y2="429.8341"/><text fill="#000000" font-family="sans-serif" font-size="13" lengthAdjust="spacing" textLength="165" x="348.5" y="424.0251">Extract encrypted user keys</text><polygon fill="#181818" points="352.5,457.5401,342.5,461.5401,352.5,465.5401,348.5,461.5401" style="stroke:#181818;stroke-width:1.0;"/><line style="stroke:#181818;stroke-width:1.0;stroke-dasharray:2.0,2.0;" x1="346.5" x2="605.5" y1="461.5401" y2="461.5401"/><text fill="#000000" font-family="sans-serif" font-size="13" lengthAdjust="spacing" textLength="120" x="358.5" y="455.7311">encrypted user keys</text><line style="stroke:#181818;stroke-width:1.0;" x1="341.5" x2="383.5" y1="493.2461" y2="493.2461"/><line style="stroke:#181818;stroke-width:1.0;" x1="383.5" x2="383.5" y1="493.2461" y2="506.2461"/><line style="stroke:#181818;stroke-width:1.0;" x1="342.5" x2="383.5" y1="506.2461" y2="506.2461"/><polygon fill="#181818" points="352.5,502.2461,342.5,506.2461,352.5,510.2461,348.5,506.2461" style="stroke:#181818;stroke-width:1.0;"/><text fill="#000000" font-family="sans-serif" font-size="13" lengthAdjust="spacing" textLength="217" x="348.5" y="487.4371">decrypt(ciphertext, key, plaintext, iv)</text><line style="stroke:#181818;stroke-width:1.0;" x1="341.5" x2="383.5" y1="537.9521" y2="537.9521"/><line style="stroke:#181818;stroke-width:1.0;" x1="383.5" x2="383.5" y1="537.9521" y2="550.9521"/><line style="stroke:#181818;stroke-width:1.0;" x1="342.5" x2="383.5" y1="550.9521" y2="550.9521"/><polygon fill="#181818" points="352.5,546.9521,342.5,550.9521,352.5,554.9521,348.5,550.9521" style="stroke:#181818;stroke-width:1.0;"/><text fill="#000000" font-family="sans-serif" font-size="13" lengthAdjust="spacing" textLength="246" x="348.5" y="532.1431">Prepend key from sender to the message</text><polygon fill="#181818" points="795,578.6582,805,582.6582,795,586.6582,799,582.6582" style="stroke:#181818;stroke-width:1.0;"/><line style="stroke:#181818;stroke-width:1.0;" x1="341.5" x2="801" y1="582.6582" y2="582.6582"/><text fill="#000000" font-family="sans-serif" font-size="13" lengthAdjust="spacing" textLength="131" x="348.5" y="576.8492">hash(key || message)</text><polygon fill="#181818" points="352.5,610.3642,342.5,614.3642,352.5,618.3642,348.5,614.3642" style="stroke:#181818;stroke-width:1.0;"/><line style="stroke:#181818;stroke-width:1.0;stroke-dasharray:2.0,2.0;" x1="346.5" x2="811" y1="614.3642" y2="614.3642"/><text fill="#000000" font-family="sans-serif" font-size="13" lengthAdjust="spacing" textLength="67" x="358.5" y="608.5552">hashServer</text><line style="stroke:#181818;stroke-width:1.0;" x1="341.5" x2="383.5" y1="646.0702" y2="646.0702"/><line style="stroke:#181818;stroke-width:1.0;" x1="383.5" x2="383.5" y1="646.0702" y2="659.0702"/><line style="stroke:#181818;stroke-width:1.0;" x1="342.5" x2="383.5" y1="659.0702" y2="659.0702"/><polygon fill="#181818" points="352.5,655.0702,342.5,659.0702,352.5,663.0702,348.5,659.0702" style="stroke:#181818;stroke-width:1.0;"/><text fill="#000000" font-family="sans-serif" font-size="13" lengthAdjust="spacing" textLength="190" x="348.5" y="640.2612">check if newHash == hashServer</text><polygon fill="#181818" points="50.5,686.7762,40.5,690.7762,50.5,694.7762,46.5,690.7762" style="stroke:#181818;stroke-width:1.0;"/><line style="stroke:#181818;stroke-width:1.0;stroke-dasharray:2.0,2.0;" x1="44.5" x2="335.5" y1="690.7762" y2="690.7762"/><text fill="#000000" font-family="sans-serif" font-size="13" lengthAdjust="spacing" textLength="57" x="56.5" y="684.9672">true/false</text><!--SRC=[fLHDQy904BtdLmoU59JIQy22XnOfsWeMUbut4xDgTiFiQXlmntVpiRfhL91UaknatfitCoyf61d1HS6aWOanZ6-Hei8BBf4E5w4tiSDbgGtcCx4YHcNmzdtv-N4jlfnEdgF8rO3HowbU38Rb1T8SjMPh_AAodpUFCyMP4KeE8iQDE323Pv41LKTI3FXhoA9QqZkCtNOw4HW5Sbiku4eQb2PAy0vPeDCRJWmBHXhha6CyY_Adw3rV2AaPaeP2hJR80oq-nut1prKYqX9wX7PBmlRI0oOJwB5SxUqXX5KRZ25ZEkjB_85KqRejxaspNdDrkP1g4LEBzFLr7N5bZTyaR6fRosvKwWglv3_szy2-6lV7m3FaspdZ_OrMqlcqDYqcGzVR8FB6q7mspUr6Qw-DGm4bfx8mjh-zjibRB7NqU7jEwZMs-msVHJgE16kElZL5XcJifpIiY8PGx9YGpLaS1bUG2y82hODiDgIaSj3sP5EC0fFXoUSUy6og2dCykfnWce6fNAqAr19rRTMLLkyGHEhM1UEnHt42X3ycskDJodOQWmeDmWyvo1y0]--></g></svg>