<?xml version="1.0" encoding="us-ascii" standalone="no"?><svg xmlns="http://www.w3.org/2000/svg" xmlns:xlink="http://www.w3.org/1999/xlink" contentStyleType="text/css" height="722px" preserveAspectRatio="none" style="width:2784px;height:722px;background:#FFFFFF;" version="1.1" viewBox="0 0 2784 722" width="2784px" zoomAndPan="magnify"><defs/><g><rect fill="#FFFFE0" height="710.5501" style="stroke:#181818;stroke-width:0.5;" width="1648.5" x="1" y="6"/><text fill="#000000" font-family="sans-serif" font-size="13" font-weight="bold" lengthAdjust="spacing" textLength="128" x="761.25" y="19.897">Client Environment</text><rect fill="#ADD8E6" height="710.5501" style="stroke:#181818;stroke-width:0.5;" width="1127" x="1651.5" y="6"/><text fill="#000000" font-family="sans-serif" font-size="13" font-weight="bold" lengthAdjust="spacing" textLength="131" x="2149.5" y="19.897">Server Environment</text><rect fill="#FFFFFF" height="582.7083" style="stroke:#181818;stroke-width:1.0;" width="10" x="65.5" y="71.7739"/><rect fill="#FFFFFF" height="239.9421" style="stroke:#181818;stroke-width:1.0;" width="10" x="441.5" y="95.4799"/><rect fill="#FFFFFF" height="242.6481" style="stroke:#181818;stroke-width:1.0;" width="10" x="441.5" y="367.1281"/><rect fill="#FFFFFF" height="202.9421" style="stroke:#181818;stroke-width:1.0;" width="10" x="446.5" y="406.8341"/><rect fill="#FFFFFF" height="34.706" style="stroke:#181818;stroke-width:1.0;" width="10" x="751.5" y="199.598"/><rect fill="#FFFFFF" height="34.706" style="stroke:#181818;stroke-width:1.0;" width="10" x="1121" y="269.01"/><rect fill="#FFFFFF" height="34.706" style="stroke:#181818;stroke-width:1.0;" width="10" x="1556.5" y="130.186"/><rect fill="#FFFFFF" height="52.412" style="stroke:#181818;stroke-width:1.0;" width="10" x="1696" y="498.9521"/><line style="stroke:#181818;stroke-width:0.5;stroke-dasharray:5.0,5.0;" x1="70" x2="70" y1="61.7739" y2="679.4822"/><line style="stroke:#181818;stroke-width:0.5;stroke-dasharray:5.0,5.0;" x1="446" x2="446" y1="61.7739" y2="679.4822"/><line style="stroke:#181818;stroke-width:0.5;stroke-dasharray:5.0,5.0;" x1="756.5" x2="756.5" y1="61.7739" y2="679.4822"/><line style="stroke:#181818;stroke-width:0.5;stroke-dasharray:5.0,5.0;" x1="944.5" x2="944.5" y1="61.7739" y2="679.4822"/><line style="stroke:#181818;stroke-width:0.5;stroke-dasharray:5.0,5.0;" x1="1125.5" x2="1125.5" y1="61.7739" y2="679.4822"/><line style="stroke:#181818;stroke-width:0.5;stroke-dasharray:5.0,5.0;" x1="1352.5" x2="1352.5" y1="61.7739" y2="679.4822"/><line style="stroke:#181818;stroke-width:0.5;stroke-dasharray:5.0,5.0;" x1="1561.5" x2="1561.5" y1="61.7739" y2="679.4822"/><line style="stroke:#181818;stroke-width:0.5;stroke-dasharray:5.0,5.0;" x1="1700.5" x2="1700.5" y1="61.7739" y2="679.4822"/><line style="stroke:#181818;stroke-width:0.5;stroke-dasharray:5.0,5.0;" x1="1867.5" x2="1867.5" y1="61.7739" y2="679.4822"/><line style="stroke:#181818;stroke-width:0.5;stroke-dasharray:5.0,5.0;" x1="2059.5" x2="2059.5" y1="61.7739" y2="679.4822"/><line style="stroke:#181818;stroke-width:0.5;stroke-dasharray:5.0,5.0;" x1="2244.5" x2="2244.5" y1="61.7739" y2="679.4822"/><line style="stroke:#181818;stroke-width:0.5;stroke-dasharray:5.0,5.0;" x1="2475.5" x2="2475.5" y1="61.7739" y2="679.4822"/><line style="stroke:#181818;stroke-width:0.5;stroke-dasharray:5.0,5.0;" x1="2688.5" x2="2688.5" y1="61.7739" y2="679.4822"/><rect fill="#E2E2F0" height="33.0679" rx="2.5" ry="2.5" style="stroke:#181818;stroke-width:0.5;" width="131" x="5" y="27.706"/><text fill="#000000" font-family="sans-serif" font-size="14" lengthAdjust="spacing" textLength="117" x="12" y="49.672">main (runClient1)</text><rect fill="#E2E2F0" height="33.0679" rx="2.5" ry="2.5" style="stroke:#181818;stroke-width:0.5;" width="131" x="5" y="678.4822"/><text fill="#000000" font-family="sans-serif" font-size="14" lengthAdjust="spacing" textLength="117" x="12" y="700.4482">main (runClient1)</text><rect fill="#E2E2F0" height="33.0679" rx="2.5" ry="2.5" style="stroke:#181818;stroke-width:0.5;" width="91" x="401" y="27.706"/><text fill="#000000" font-family="sans-serif" font-size="14" lengthAdjust="spacing" textLength="77" x="408" y="49.672">Client (Bob)</text><rect fill="#E2E2F0" height="33.0679" rx="2.5" ry="2.5" style="stroke:#181818;stroke-width:0.5;" width="91" x="401" y="678.4822"/><text fill="#000000" font-family="sans-serif" font-size="14" lengthAdjust="spacing" textLength="77" x="408" y="700.4482">Client (Bob)</text><rect fill="#E2E2F0" height="33.0679" rx="2.5" ry="2.5" style="stroke:#181818;stroke-width:0.5;" width="218" x="647.5" y="27.706"/><text fill="#000000" font-family="sans-serif" font-size="14" lengthAdjust="spacing" textLength="204" x="654.5" y="49.672">Client:SecureRemotePassword</text><rect fill="#E2E2F0" height="33.0679" rx="2.5" ry="2.5" style="stroke:#181818;stroke-width:0.5;" width="218" x="647.5" y="678.4822"/><text fill="#000000" font-family="sans-serif" font-size="14" lengthAdjust="spacing" textLength="204" x="654.5" y="700.4482">Client:SecureRemotePassword</text><rect fill="#E2E2F0" height="33.0679" rx="2.5" ry="2.5" style="stroke:#181818;stroke-width:0.5;" width="139" x="875.5" y="27.706"/><text fill="#000000" font-family="sans-serif" font-size="14" lengthAdjust="spacing" textLength="125" x="882.5" y="49.672">Client:SessionData</text><rect fill="#E2E2F0" height="33.0679" rx="2.5" ry="2.5" style="stroke:#181818;stroke-width:0.5;" width="139" x="875.5" y="678.4822"/><text fill="#000000" font-family="sans-serif" font-size="14" lengthAdjust="spacing" textLength="125" x="882.5" y="700.4482">Client:SessionData</text><rect fill="#E2E2F0" height="33.0679" rx="2.5" ry="2.5" style="stroke:#181818;stroke-width:0.5;" width="203" x="1024.5" y="27.706"/><text fill="#000000" font-family="sans-serif" font-size="14" lengthAdjust="spacing" textLength="189" x="1031.5" y="49.672">Client:SrpParametersLoader</text><rect fill="#E2E2F0" height="33.0679" rx="2.5" ry="2.5" style="stroke:#181818;stroke-width:0.5;" width="203" x="1024.5" y="678.4822"/><text fill="#000000" font-family="sans-serif" font-size="14" lengthAdjust="spacing" textLength="189" x="1031.5" y="700.4482">Client:SrpParametersLoader</text><rect fill="#E2E2F0" height="33.0679" rx="2.5" ry="2.5" style="stroke:#181818;stroke-width:0.5;" width="230" x="1237.5" y="27.706"/><text fill="#000000" font-family="sans-serif" font-size="14" lengthAdjust="spacing" textLength="216" x="1244.5" y="49.672">Client:MessageExtractionFacility</text><rect fill="#E2E2F0" height="33.0679" rx="2.5" ry="2.5" style="stroke:#181818;stroke-width:0.5;" width="230" x="1237.5" y="678.4822"/><text fill="#000000" font-family="sans-serif" font-size="14" lengthAdjust="spacing" textLength="216" x="1244.5" y="700.4482">Client:MessageExtractionFacility</text><rect fill="#E2E2F0" height="33.0679" rx="2.5" ry="2.5" style="stroke:#181818;stroke-width:0.5;" width="168" x="1477.5" y="27.706"/><text fill="#000000" font-family="sans-serif" font-size="14" lengthAdjust="spacing" textLength="154" x="1484.5" y="49.672">Client:EncryptionUtility</text><rect fill="#E2E2F0" height="33.0679" rx="2.5" ry="2.5" style="stroke:#181818;stroke-width:0.5;" width="168" x="1477.5" y="678.4822"/><text fill="#000000" font-family="sans-serif" font-size="14" lengthAdjust="spacing" textLength="154" x="1484.5" y="700.4482">Client:EncryptionUtility</text><rect fill="#E2E2F0" height="33.0679" rx="2.5" ry="2.5" style="stroke:#181818;stroke-width:0.5;" width="91" x="1655.5" y="27.706"/><text fill="#000000" font-family="sans-serif" font-size="14" lengthAdjust="spacing" textLength="77" x="1662.5" y="49.672">Server (API)</text><rect fill="#E2E2F0" height="33.0679" rx="2.5" ry="2.5" style="stroke:#181818;stroke-width:0.5;" width="91" x="1655.5" y="678.4822"/><text fill="#000000" font-family="sans-serif" font-size="14" lengthAdjust="spacing" textLength="77" x="1662.5" y="700.4482">Server (API)</text><rect fill="#E2E2F0" height="33.0679" rx="2.5" ry="2.5" style="stroke:#181818;stroke-width:0.5;" width="222" x="1756.5" y="27.706"/><text fill="#000000" font-family="sans-serif" font-size="14" lengthAdjust="spacing" textLength="208" x="1763.5" y="49.672">Server:SecureRemotePassword</text><rect fill="#E2E2F0" height="33.0679" rx="2.5" ry="2.5" style="stroke:#181818;stroke-width:0.5;" width="222" x="1756.5" y="678.4822"/><text fill="#000000" font-family="sans-serif" font-size="14" lengthAdjust="spacing" textLength="208" x="1763.5" y="700.4482">Server:SecureRemotePassword</text><rect fill="#E2E2F0" height="33.0679" rx="2.5" ry="2.5" style="stroke:#181818;stroke-width:0.5;" width="143" x="1988.5" y="27.706"/><text fill="#000000" font-family="sans-serif" font-size="14" lengthAdjust="spacing" textLength="129" x="1995.5" y="49.672">Server:SessionData</text><rect fill="#E2E2F0" height="33.0679" rx="2.5" ry="2.5" style="stroke:#181818;stroke-width:0.5;" width="143" x="1988.5" y="678.4822"/><text fill="#000000" font-family="sans-serif" font-size="14" lengthAdjust="spacing" textLength="129" x="1995.5" y="700.4482">Server:SessionData</text><rect fill="#E2E2F0" height="33.0679" rx="2.5" ry="2.5" style="stroke:#181818;stroke-width:0.5;" width="207" x="2141.5" y="27.706"/><text fill="#000000" font-family="sans-serif" font-size="14" lengthAdjust="spacing" textLength="193" x="2148.5" y="49.672">Server:SrpParametersLoader</text><rect fill="#E2E2F0" height="33.0679" rx="2.5" ry="2.5" style="stroke:#181818;stroke-width:0.5;" width="207" x="2141.5" y="678.4822"/><text fill="#000000" font-family="sans-serif" font-size="14" lengthAdjust="spacing" textLength="193" x="2148.5" y="700.4482">Server:SrpParametersLoader</text><rect fill="#E2E2F0" height="33.0679" rx="2.5" ry="2.5" style="stroke:#181818;stroke-width:0.5;" width="234" x="2358.5" y="27.706"/><text fill="#000000" font-family="sans-serif" font-size="14" lengthAdjust="spacing" textLength="220" x="2365.5" y="49.672">Server:MessageExtractionFacility</text><rect fill="#E2E2F0" height="33.0679" rx="2.5" ry="2.5" style="stroke:#181818;stroke-width:0.5;" width="234" x="2358.5" y="678.4822"/><text fill="#000000" font-family="sans-serif" font-size="14" lengthAdjust="spacing" textLength="220" x="2365.5" y="700.4482">Server:MessageExtractionFacility</text><rect fill="#E2E2F0" height="33.0679" rx="2.5" ry="2.5" style="stroke:#181818;stroke-width:0.5;" width="172" x="2602.5" y="27.706"/><text fill="#000000" font-family="sans-serif" font-size="14" lengthAdjust="spacing" textLength="158" x="2609.5" y="49.672">Server:EncryptionUtility</text><rect fill="#E2E2F0" height="33.0679" rx="2.5" ry="2.5" style="stroke:#181818;stroke-width:0.5;" width="172" x="2602.5" y="678.4822"/><text fill="#000000" font-family="sans-serif" font-size="14" lengthAdjust="spacing" textLength="158" x="2609.5" y="700.4482">Server:EncryptionUtility</text><rect fill="#FFFFFF" height="582.7083" style="stroke:#181818;stroke-width:1.0;" width="10" x="65.5" y="71.7739"/><rect fill="#FFFFFF" height="239.9421" style="stroke:#181818;stroke-width:1.0;" width="10" x="441.5" y="95.4799"/><rect fill="#FFFFFF" height="242.6481" style="stroke:#181818;stroke-width:1.0;" width="10" x="441.5" y="367.1281"/><rect fill="#FFFFFF" height="202.9421" style="stroke:#181818;stroke-width:1.0;" width="10" x="446.5" y="406.8341"/><rect fill="#FFFFFF" height="34.706" style="stroke:#181818;stroke-width:1.0;" width="10" x="751.5" y="199.598"/><rect fill="#FFFFFF" height="34.706" style="stroke:#181818;stroke-width:1.0;" width="10" x="1121" y="269.01"/><rect fill="#FFFFFF" height="34.706" style="stroke:#181818;stroke-width:1.0;" width="10" x="1556.5" y="130.186"/><rect fill="#FFFFFF" height="52.412" style="stroke:#181818;stroke-width:1.0;" width="10" x="1696" y="498.9521"/><polygon fill="#181818" points="429.5,91.4799,439.5,95.4799,429.5,99.4799,433.5,95.4799" style="stroke:#181818;stroke-width:1.0;"/><line style="stroke:#181818;stroke-width:1.0;" x1="75.5" x2="435.5" y1="95.4799" y2="95.4799"/><text fill="#000000" font-family="sans-serif" font-size="13" lengthAdjust="spacing" textLength="188" x="82.5" y="89.6709">Create Client("Bob", debugFlag)</text><polygon fill="#181818" points="1544.5,126.186,1554.5,130.186,1544.5,134.186,1548.5,130.186" style="stroke:#181818;stroke-width:1.0;"/><line style="stroke:#181818;stroke-width:1.0;" x1="451.5" x2="1550.5" y1="130.186" y2="130.186"/><text fill="#000000" font-family="sans-serif" font-size="13" lengthAdjust="spacing" textLength="102" x="458.5" y="124.377">getMinSaltSizes()</text><path d="M1571,108.4799 L1571,135.4799 L1898,135.4799 L1898,118.4799 L1888,108.4799 L1571,108.4799 " fill="#FEFFDD" style="stroke:#181818;stroke-width:0.5;"/><path d="M1888,108.4799 L1888,118.4799 L1898,118.4799 L1888,108.4799 " fill="#FEFFDD" style="stroke:#181818;stroke-width:0.5;"/><text fill="#000000" font-family="sans-serif" font-size="13" lengthAdjust="spacing" textLength="306" x="1577" y="127.377">Loads the result into the _minSaltSizesMap variable</text><polygon fill="#181818" points="462.5,160.892,452.5,164.892,462.5,168.892,458.5,164.892" style="stroke:#181818;stroke-width:1.0;"/><line style="stroke:#181818;stroke-width:1.0;stroke-dasharray:2.0,2.0;" x1="456.5" x2="1560.5" y1="164.892" y2="164.892"/><text fill="#000000" font-family="sans-serif" font-size="13" lengthAdjust="spacing" textLength="352" x="468.5" y="159.083">A map of hash names with the minimum salt sizes, in bytes.</text><polygon fill="#181818" points="739.5,195.598,749.5,199.598,739.5,203.598,743.5,199.598" style="stroke:#181818;stroke-width:1.0;"/><line style="stroke:#181818;stroke-width:1.0;" x1="451.5" x2="745.5" y1="199.598" y2="199.598"/><text fill="#000000" font-family="sans-serif" font-size="13" lengthAdjust="spacing" textLength="223" x="458.5" y="193.789">getSrpParametersFilenameLocation()</text><path d="M766,177.892 L766,204.892 L1134,204.892 L1134,187.892 L1124,177.892 L766,177.892 " fill="#FEFFDD" style="stroke:#181818;stroke-width:0.5;"/><path d="M1124,177.892 L1124,187.892 L1134,187.892 L1124,177.892 " fill="#FEFFDD" style="stroke:#181818;stroke-width:0.5;"/><text fill="#000000" font-family="sans-serif" font-size="13" lengthAdjust="spacing" textLength="347" x="772" y="196.789">Loads the result into the _srpParametersFilename variable</text><polygon fill="#181818" points="462.5,230.304,452.5,234.304,462.5,238.304,458.5,234.304" style="stroke:#181818;stroke-width:1.0;"/><line style="stroke:#181818;stroke-width:1.0;stroke-dasharray:2.0,2.0;" x1="456.5" x2="755.5" y1="234.304" y2="234.304"/><text fill="#000000" font-family="sans-serif" font-size="13" lengthAdjust="spacing" textLength="276" x="468.5" y="228.495">Returns the SRP parameters file name location</text><polygon fill="#181818" points="1109,265.01,1119,269.01,1109,273.01,1113,269.01" style="stroke:#181818;stroke-width:1.0;"/><line style="stroke:#181818;stroke-width:1.0;" x1="451.5" x2="1115" y1="269.01" y2="269.01"/><text fill="#000000" font-family="sans-serif" font-size="13" lengthAdjust="spacing" textLength="271" x="458.5" y="263.201">loadSrpParameters(_srpParametersFilename)</text><path d="M1136,247.304 L1136,274.304 L1523,274.304 L1523,257.304 L1513,247.304 L1136,247.304 " fill="#FEFFDD" style="stroke:#181818;stroke-width:0.5;"/><path d="M1513,247.304 L1513,257.304 L1523,257.304 L1513,247.304 " fill="#FEFFDD" style="stroke:#181818;stroke-width:0.5;"/><text fill="#000000" font-family="sans-serif" font-size="13" lengthAdjust="spacing" textLength="366" x="1142" y="266.201">Loads SRP group parameters (N, g, hashName) from JSON file</text><polygon fill="#181818" points="462.5,299.716,452.5,303.716,462.5,307.716,458.5,303.716" style="stroke:#181818;stroke-width:1.0;"/><line style="stroke:#181818;stroke-width:1.0;stroke-dasharray:2.0,2.0;" x1="456.5" x2="1125" y1="303.716" y2="303.716"/><text fill="#000000" font-family="sans-serif" font-size="13" lengthAdjust="spacing" textLength="125" x="468.5" y="297.907">SRP parameters map</text><polygon fill="#181818" points="86.5,331.4221,76.5,335.4221,86.5,339.4221,82.5,335.4221" style="stroke:#181818;stroke-width:1.0;"/><line style="stroke:#181818;stroke-width:1.0;stroke-dasharray:2.0,2.0;" x1="80.5" x2="445.5" y1="335.4221" y2="335.4221"/><text fill="#000000" font-family="sans-serif" font-size="13" lengthAdjust="spacing" textLength="81" x="92.5" y="329.6131">returns Client</text><polygon fill="#181818" points="429.5,363.1281,439.5,367.1281,429.5,371.1281,433.5,367.1281" style="stroke:#181818;stroke-width:1.0;"/><line style="stroke:#181818;stroke-width:1.0;" x1="75.5" x2="435.5" y1="367.1281" y2="367.1281"/><text fill="#000000" font-family="sans-serif" font-size="13" lengthAdjust="spacing" textLength="347" x="82.5" y="361.3191">registration(client-&gt;getProductionPort(), requestedGroup)</text><line style="stroke:#181818;stroke-width:1.0;" x1="451.5" x2="498.5" y1="393.8341" y2="393.8341"/><line style="stroke:#181818;stroke-width:1.0;" x1="498.5" x2="498.5" y1="393.8341" y2="406.8341"/><line style="stroke:#181818;stroke-width:1.0;" x1="457.5" x2="498.5" y1="406.8341" y2="406.8341"/><polygon fill="#181818" points="467.5,402.8341,457.5,406.8341,467.5,410.8341,463.5,406.8341" style="stroke:#181818;stroke-width:1.0;"/><text fill="#000000" font-family="sans-serif" font-size="13" lengthAdjust="spacing" textLength="267" x="463.5" y="388.0251">registrationInit(portServerNumber, groupId)</text><line style="stroke:#181818;stroke-width:1.0;" x1="456.5" x2="498.5" y1="448.8931" y2="448.8931"/><line style="stroke:#181818;stroke-width:1.0;" x1="498.5" x2="498.5" y1="448.8931" y2="461.8931"/><line style="stroke:#181818;stroke-width:1.0;" x1="457.5" x2="498.5" y1="461.8931" y2="461.8931"/><polygon fill="#181818" points="467.5,457.8931,457.5,461.8931,467.5,465.8931,463.5,461.8931" style="stroke:#181818;stroke-width:1.0;"/><text fill="#000000" font-family="sans-serif" font-size="13" lengthAdjust="spacing" textLength="190" x="463.5" y="443.0841">built "srp/register/init" message</text><path d="M665,424.8341 L665,469.8341 L915,469.8341 L915,434.8341 L905,424.8341 L665,424.8341 " fill="#FEFFDD" style="stroke:#181818;stroke-width:0.5;"/><path d="M905,424.8341 L905,434.8341 L915,434.8341 L905,424.8341 " fill="#FEFFDD" style="stroke:#181818;stroke-width:0.5;"/><text fill="#000000" font-family="sans-serif" font-size="13" lengthAdjust="spacing" textLength="229" x="671" y="443.7311">Client constructs JSON registration init</text><text fill="#000000" font-family="sans-serif" font-size="13" lengthAdjust="spacing" textLength="201" x="671" y="461.4371">with clientId and requestedGroup</text><polygon fill="#181818" points="1684,494.9521,1694,498.9521,1684,502.9521,1688,498.9521" style="stroke:#181818;stroke-width:1.0;"/><line style="stroke:#181818;stroke-width:1.0;" x1="456.5" x2="1690" y1="498.9521" y2="498.9521"/><text fill="#000000" font-family="sans-serif" font-size="13" lengthAdjust="spacing" textLength="387" x="463.5" y="493.1431">HTTP POST /srp/register/init (1st msg of the registration process)</text><polygon fill="#181818" points="467.5,547.3642,457.5,551.3642,467.5,555.3642,463.5,551.3642" style="stroke:#181818;stroke-width:1.0;"/><line style="stroke:#181818;stroke-width:1.0;stroke-dasharray:2.0,2.0;" x1="461.5" x2="1700" y1="551.3642" y2="551.3642"/><text fill="#000000" font-family="sans-serif" font-size="13" lengthAdjust="spacing" textLength="77" x="473.5" y="545.5552">HTTP 201 OK</text><path d="M1711,511.9521 L1711,574.9521 L2008,574.9521 L2008,521.9521 L1998,511.9521 L1711,511.9521 " fill="#FEFFDD" style="stroke:#181818;stroke-width:0.5;"/><path d="M1998,511.9521 L1998,521.9521 L2008,521.9521 L1998,511.9521 " fill="#FEFFDD" style="stroke:#181818;stroke-width:0.5;"/><text fill="#000000" font-family="sans-serif" font-size="13" lengthAdjust="spacing" textLength="228" x="1717" y="530.8492">Serve constructs JSON registration init</text><text fill="#000000" font-family="sans-serif" font-size="13" lengthAdjust="spacing" textLength="249" x="1717" y="548.5552">response with the fields: clientId, groupId,</text><text fill="#000000" font-family="sans-serif" font-size="13" lengthAdjust="spacing" textLength="276" x="1717" y="566.2612">groupName, primeN, generatorG, sha and salt</text><line style="stroke:#181818;stroke-width:1.0;stroke-dasharray:2.0,2.0;" x1="456.5" x2="498.5" y1="608.7762" y2="608.7762"/><line style="stroke:#181818;stroke-width:1.0;stroke-dasharray:2.0,2.0;" x1="498.5" x2="498.5" y1="608.7762" y2="621.7762"/><line style="stroke:#181818;stroke-width:1.0;stroke-dasharray:2.0,2.0;" x1="451.5" x2="498.5" y1="621.7762" y2="621.7762"/><polygon fill="#181818" points="461.5,617.7762,451.5,621.7762,461.5,625.7762,457.5,621.7762" style="stroke:#181818;stroke-width:1.0;"/><text fill="#000000" font-family="sans-serif" font-size="13" lengthAdjust="spacing" textLength="107" x="463.5" y="602.9672">registrationResult</text><line style="stroke:#181818;stroke-width:1.0;" x1="75.5" x2="117.5" y1="653.4822" y2="653.4822"/><line style="stroke:#181818;stroke-width:1.0;" x1="117.5" x2="117.5" y1="653.4822" y2="666.4822"/><line style="stroke:#181818;stroke-width:1.0;" x1="70.5" x2="117.5" y1="666.4822" y2="666.4822"/><polygon fill="#181818" points="80.5,662.4822,70.5,666.4822,80.5,670.4822,76.5,666.4822" style="stroke:#181818;stroke-width:1.0;"/><text fill="#000000" font-family="sans-serif" font-size="13" lengthAdjust="spacing" textLength="85" x="82.5" y="647.6732">Program ends</text><!--SRC=[dLLDSvim4BtxL-ou5po3cwP77pgJf7RgDdOyTdBegIDWZJK3Y4h2IVhhkv8m0IEIJZbuZAIt7-_j4v5uXl5Dnh7GC2-EN8eYf_zZ-737quF-YLacdaP0JycavZ4l6PqSvumN4CYgSD3BoHYOWXMjzi_MqODh4RbZRc7eu6o7SILnYxdGk65AFGcPj72xxUODg59S55-PPcs4Mnr6oNB39CjHerHtWYKessXPkhL1_8hYinJdprgoM5Ec1OjvnlLBAyfglXZ4pujOlfG6-AZFSVF74HO9HE9vD8gCLZkKHvG-hQwp2livwlF1rMRfs7SBz3fqTbW0j-yLe85s1QWHGmASK0C2rEXX0MhysmAuGru1QhnV0BVP5i04FpADRj17vXUcNsgbO0Ot4iskUm_6DF3Z41ACgdIHiNJoYgyTO0kgqKsS-UCCKjGhNknOfdVy3wfWOa-UmQaog9-2b09fXg1PCe-XJO4-q1wgAjF02oti-w-y5Nx5IZWooLcKOOCtJPkmhHhdZp1jofp15UG457iuC7M0WkHJyCJrmIQW-3olSb2K19J94b9sY5uqgeysPeBzVho4qBnPHZfJik0PcfHt8cP6E3z5fr7zFuwKB-4_CKLvErHjKLUoS6dCNjc4XJt5jUH1LhVYPyUqugVdP0yQm8p-T6WA_4tuoUhux5tAJ1-f55NPxYPOXv26TYBM9W_ifSZX- -v-RHjzaxEcZsdRKsTqqSWDyDDKts69GbcRpaXUfq7jlLu0ZvybfbpHdM87BBQhqoyqYHifaifUD1iXTJ09wUJl2fN6vDOmqdUwJxXk_6N1TL1IE7VjhAiyGXawXfU9Lx26pVF8L7fKSPhbCQb_uRAWl21BqiSYTvVbUoBNaM9HK8NKh78gjai64x03ilPtH2qJO2HobnY__jqMckyJTV7juM43c_lT0rpqEe7WKcd8LMgk8EVVLccb534rEcaIDDnrlt-dvpLhP_fi0Py_NSBz3-YS7s2j2VK-ST03qWLK4WfVRz4znonHiuRIPXx27jXk6C-5r3lFqHWH2wI4Gjw6e0xCwc7kumwsfqJB67sgMhRo3V7MNg5-WuvybciyLvkKd9MIrqrLgdtUVd3_0W00]--></g></svg>