<?xml version="1.0" encoding="us-ascii" standalone="no"?><svg xmlns="http://www.w3.org/2000/svg" xmlns:xlink="http://www.w3.org/1999/xlink" contentStyleType="text/css" height="1259px" preserveAspectRatio="none" style="width:1467px;height:1259px;background:#FFFFFF;" version="1.1" viewBox="0 0 1467 1259" width="1467px" zoomAndPan="magnify"><defs/><g><!--cluster MessageFormat--><g id="cluster_MessageFormat"><path d="M960.5,67 L1072.5,67 A3.75,3.75 0 0 1 1075,69.5 L1082,92.0679 L1129.5,92.0679 A2.5,2.5 0 0 1 1132,94.5679 L1132,237.5 A2.5,2.5 0 0 1 1129.5,240 L960.5,240 A2.5,2.5 0 0 1 958,237.5 L958,69.5 A2.5,2.5 0 0 1 960.5,67 " fill="none" style="stroke:#000000;stroke-width:1.5;"/><line style="stroke:#000000;stroke-width:1.5;" x1="958" x2="1082" y1="92.0679" y2="92.0679"/><text fill="#000000" font-family="sans-serif" font-size="14" font-weight="bold" lengthAdjust="spacing" textLength="111" x="962" y="83.9659">MessageFormat</text></g><!--cluster MD4InternalState--><g id="cluster_MD4InternalState"><path d="M1158.5,86.5 L1281.5,86.5 A3.75,3.75 0 0 1 1284,89 L1291,111.5679 L1457.5,111.5679 A2.5,2.5 0 0 1 1460,114.0679 L1460,218 A2.5,2.5 0 0 1 1457.5,220.5 L1158.5,220.5 A2.5,2.5 0 0 1 1156,218 L1156,89 A2.5,2.5 0 0 1 1158.5,86.5 " fill="none" style="stroke:#000000;stroke-width:1.5;"/><line style="stroke:#000000;stroke-width:1.5;" x1="1156" x2="1291" y1="111.5679" y2="111.5679"/><text fill="#000000" font-family="sans-serif" font-size="14" font-weight="bold" lengthAdjust="spacing" textLength="122" x="1160" y="103.4659">MD4InternalState</text></g><!--cluster MyCryptoLibrary--><g id="cluster_MyCryptoLibrary"><path d="M8.5,647 L126.5,647 A3.75,3.75 0 0 1 129,649.5 L136,672.0679 L1035.5,672.0679 A2.5,2.5 0 0 1 1038,674.5679 L1038,1249.5 A2.5,2.5 0 0 1 1035.5,1252 L8.5,1252 A2.5,2.5 0 0 1 6,1249.5 L6,649.5 A2.5,2.5 0 0 1 8.5,647 " fill="none" style="stroke:#000000;stroke-width:1.5;"/><line style="stroke:#000000;stroke-width:1.5;" x1="6" x2="136" y1="672.0679" y2="672.0679"/><text fill="#000000" font-family="sans-serif" font-size="14" font-weight="bold" lengthAdjust="spacing" textLength="117" x="10" y="663.9659">MyCryptoLibrary</text></g><!--class MessageFormat--><g id="elem_MessageFormat"><rect codeLine="3" fill="#F1F1F1" height="118.6158" id="MessageFormat" rx="2.5" ry="2.5" style="stroke:#181818;stroke-width:0.5;" width="142" x="974" y="105"/><ellipse cx="990.35" cy="127.706" fill="#ADD1B2" rx="11" ry="11" style="stroke:#181818;stroke-width:1.0;"/><path d="M993.3188,133.3466 Q992.7406,133.6435 992.1,133.7841 Q991.4594,133.9404 990.7563,133.9404 Q988.2563,133.9404 986.9281,132.2998 Q985.6156,130.6435 985.6156,127.5185 Q985.6156,124.3935 986.9281,122.7373 Q988.2563,121.081 990.7563,121.081 Q991.4594,121.081 992.1,121.2373 Q992.7563,121.3935 993.3188,121.6904 L993.3188,124.4091 Q992.6938,123.831 992.1,123.5654 Q991.5063,123.2841 990.8813,123.2841 Q989.5375,123.2841 988.85,124.3623 Q988.1625,125.4248 988.1625,127.5185 Q988.1625,129.6123 988.85,130.6904 Q989.5375,131.7529 990.8813,131.7529 Q991.5063,131.7529 992.1,131.4873 Q992.6938,131.206 993.3188,130.6279 L993.3188,133.3466 Z " fill="#000000"/><text fill="#000000" font-family="sans-serif" font-size="12" font-style="italic" lengthAdjust="spacing" textLength="42" x="1037.15" y="122.8281">&#171;struct&#187;</text><text fill="#000000" font-family="sans-serif" font-size="14" lengthAdjust="spacing" textLength="107" x="1004.65" y="141.31">MessageFormat</text><line style="stroke:#181818;stroke-width:0.5;" x1="975" x2="1115" y1="150.412" y2="150.412"/><ellipse cx="985" cy="165.446" fill="none" rx="3" ry="3" style="stroke:#038048;stroke-width:1.0;"/><text fill="#000000" font-family="sans-serif" font-size="14" lengthAdjust="spacing" textLength="106" x="994" y="169.378">_url : std::string</text><ellipse cx="985" cy="184.5139" fill="none" rx="3" ry="3" style="stroke:#038048;stroke-width:1.0;"/><text fill="#000000" font-family="sans-serif" font-size="14" lengthAdjust="spacing" textLength="116" x="994" y="188.4459">_msg : std::string</text><ellipse cx="985" cy="203.5818" fill="none" rx="3" ry="3" style="stroke:#038048;stroke-width:1.0;"/><text fill="#000000" font-family="sans-serif" font-size="14" lengthAdjust="spacing" textLength="115" x="994" y="207.5138">_mac : std::string</text><line style="stroke:#181818;stroke-width:0.5;" x1="975" x2="1115" y1="215.6158" y2="215.6158"/></g><!--class MD4InternalState--><g id="elem_MD4InternalState"><rect codeLine="11" fill="#F1F1F1" height="80.4799" id="MD4InternalState" rx="2.5" ry="2.5" style="stroke:#181818;stroke-width:0.5;" width="271" x="1172.5" y="124.5"/><ellipse cx="1244.25" cy="147.206" fill="#ADD1B2" rx="11" ry="11" style="stroke:#181818;stroke-width:1.0;"/><path d="M1247.2188,152.8466 Q1246.6406,153.1435 1246,153.2841 Q1245.3594,153.4404 1244.6563,153.4404 Q1242.1563,153.4404 1240.8281,151.7998 Q1239.5156,150.1435 1239.5156,147.0185 Q1239.5156,143.8935 1240.8281,142.2373 Q1242.1563,140.581 1244.6563,140.581 Q1245.3594,140.581 1246,140.7373 Q1246.6563,140.8935 1247.2188,141.1904 L1247.2188,143.9091 Q1246.5938,143.331 1246,143.0654 Q1245.4063,142.7841 1244.7813,142.7841 Q1243.4375,142.7841 1242.75,143.8623 Q1242.0625,144.9248 1242.0625,147.0185 Q1242.0625,149.1123 1242.75,150.1904 Q1243.4375,151.2529 1244.7813,151.2529 Q1245.4063,151.2529 1246,150.9873 Q1246.5938,150.706 1247.2188,150.1279 L1247.2188,152.8466 Z " fill="#000000"/><text fill="#000000" font-family="sans-serif" font-size="12" font-style="italic" lengthAdjust="spacing" textLength="42" x="1303.25" y="142.3281">&#171;struct&#187;</text><text fill="#000000" font-family="sans-serif" font-size="14" lengthAdjust="spacing" textLength="119" x="1264.75" y="160.81">MD4InternalState</text><line style="stroke:#181818;stroke-width:0.5;" x1="1173.5" x2="1442.5" y1="169.912" y2="169.912"/><ellipse cx="1183.5" cy="184.946" fill="none" rx="3" ry="3" style="stroke:#038048;stroke-width:1.0;"/><text fill="#000000" font-family="sans-serif" font-size="14" lengthAdjust="spacing" textLength="245" x="1192.5" y="188.878">_internalState : std::vector&lt;uint32_t&gt;</text><line style="stroke:#181818;stroke-width:0.5;" x1="1173.5" x2="1442.5" y1="196.9799" y2="196.9799"/></g><!--class MessageDigest--><g id="elem_MessageDigest"><rect codeLine="28" fill="#F1F1F1" height="118.6158" id="MessageDigest" rx="2.5" ry="2.5" style="stroke:#181818;stroke-width:0.5;" width="503" x="146.5" y="685"/><ellipse cx="342.25" cy="707.706" fill="#ADD1B2" rx="11" ry="11" style="stroke:#181818;stroke-width:1.0;"/><path d="M345.2188,713.3466 Q344.6406,713.6435 344,713.7841 Q343.3594,713.9404 342.6563,713.9404 Q340.1563,713.9404 338.8281,712.2998 Q337.5156,710.6435 337.5156,707.5185 Q337.5156,704.3935 338.8281,702.7373 Q340.1563,701.081 342.6563,701.081 Q343.3594,701.081 344,701.2373 Q344.6563,701.3935 345.2188,701.6904 L345.2188,704.4091 Q344.5938,703.831 344,703.5654 Q343.4063,703.2841 342.7813,703.2841 Q341.4375,703.2841 340.75,704.3623 Q340.0625,705.4248 340.0625,707.5185 Q340.0625,709.6123 340.75,710.6904 Q341.4375,711.7529 342.7813,711.7529 Q343.4063,711.7529 344,711.4873 Q344.5938,711.206 345.2188,710.6279 L345.2188,713.3466 Z " fill="#000000"/><text fill="#000000" font-family="sans-serif" font-size="12" font-style="italic" lengthAdjust="spacing" textLength="56" x="386.25" y="702.8281">&#171;abstract&#187;</text><text fill="#000000" font-family="sans-serif" font-size="14" lengthAdjust="spacing" textLength="103" x="362.75" y="721.31">MessageDigest</text><line style="stroke:#181818;stroke-width:0.5;" x1="147.5" x2="648.5" y1="730.412" y2="730.412"/><line style="stroke:#181818;stroke-width:0.5;" x1="147.5" x2="648.5" y1="738.412" y2="738.412"/><ellipse cx="157.5" cy="753.446" fill="#84BE84" rx="3" ry="3" style="stroke:#038048;stroke-width:1.0;"/><text fill="#000000" font-family="sans-serif" font-size="14" lengthAdjust="spacing" textLength="111" x="166.5" y="757.378">MessageDigest()</text><ellipse cx="157.5" cy="772.5139" fill="#84BE84" rx="3" ry="3" style="stroke:#038048;stroke-width:1.0;"/><text fill="#000000" font-family="sans-serif" font-size="14" lengthAdjust="spacing" textLength="119" x="166.5" y="776.4459">~MessageDigest()</text><ellipse cx="157.5" cy="791.5818" fill="#84BE84" rx="3" ry="3" style="stroke:#038048;stroke-width:1.0;"/><text fill="#000000" font-family="sans-serif" font-size="14" lengthAdjust="spacing" textLength="477" x="166.5" y="795.5138">hash(inputV : std::vector&lt;unsigned char&gt;) : std::vector&lt;unsigned char&gt;</text></g><!--class MD4--><g id="elem_MD4"><rect codeLine="34" fill="#F1F1F1" height="353.0867" id="MD4" rx="2.5" ry="2.5" style="stroke:#181818;stroke-width:0.5;" width="1001" x="21.5" y="883"/><ellipse cx="502.25" cy="899" fill="#ADD1B2" rx="11" ry="11" style="stroke:#181818;stroke-width:1.0;"/><path d="M505.2188,904.6406 Q504.6406,904.9375 504,905.0781 Q503.3594,905.2344 502.6563,905.2344 Q500.1563,905.2344 498.8281,903.5938 Q497.5156,901.9375 497.5156,898.8125 Q497.5156,895.6875 498.8281,894.0313 Q500.1563,892.375 502.6563,892.375 Q503.3594,892.375 504,892.5313 Q504.6563,892.6875 505.2188,892.9844 L505.2188,895.7031 Q504.5938,895.125 504,894.8594 Q503.4063,894.5781 502.7813,894.5781 Q501.4375,894.5781 500.75,895.6563 Q500.0625,896.7188 500.0625,898.8125 Q500.0625,900.9063 500.75,901.9844 Q501.4375,903.0469 502.7813,903.0469 Q503.4063,903.0469 504,902.7813 Q504.5938,902.5 505.2188,901.9219 L505.2188,904.6406 Z " fill="#000000"/><text fill="#000000" font-family="sans-serif" font-size="14" lengthAdjust="spacing" textLength="31" x="522.75" y="904.432">MD4</text><line style="stroke:#181818;stroke-width:0.5;" x1="22.5" x2="1021.5" y1="915" y2="915"/><rect fill="none" height="6" style="stroke:#C82930;stroke-width:1.0;" width="6" x="29.5" y="927.034"/><text fill="#000000" font-family="sans-serif" font-size="14" lengthAdjust="spacing" textLength="192" x="41.5" y="933.9659">_sizeOutputHash : std::size_t</text><rect fill="none" height="6" style="stroke:#C82930;stroke-width:1.0;" width="6" x="29.5" y="946.1019"/><text fill="#000000" font-family="sans-serif" font-size="14" lengthAdjust="spacing" textLength="298" x="41.5" y="953.0339">_inputVpadded : std::vector&lt;unsigned char&gt;</text><rect fill="none" height="6" style="stroke:#C82930;stroke-width:1.0;" width="6" x="29.5" y="965.1698"/><text fill="#000000" font-family="sans-serif" font-size="14" lengthAdjust="spacing" textLength="80" x="41.5" y="972.1018">_a : uint32_t</text><rect fill="none" height="6" style="stroke:#C82930;stroke-width:1.0;" width="6" x="29.5" y="984.2377"/><text fill="#000000" font-family="sans-serif" font-size="14" lengthAdjust="spacing" textLength="81" x="41.5" y="991.1697">_b : uint32_t</text><rect fill="none" height="6" style="stroke:#C82930;stroke-width:1.0;" width="6" x="29.5" y="1003.3056"/><text fill="#000000" font-family="sans-serif" font-size="14" lengthAdjust="spacing" textLength="79" x="41.5" y="1010.2376">_c : uint32_t</text><rect fill="none" height="6" style="stroke:#C82930;stroke-width:1.0;" width="6" x="29.5" y="1022.3735"/><text fill="#000000" font-family="sans-serif" font-size="14" lengthAdjust="spacing" textLength="81" x="41.5" y="1029.3055">_d : uint32_t</text><rect fill="none" height="6" style="stroke:#C82930;stroke-width:1.0;" width="6" x="29.5" y="1041.4415"/><text fill="#000000" font-family="sans-serif" font-size="14" lengthAdjust="spacing" textLength="89" x="41.5" y="1048.3734">_ml : uint64_t</text><line style="stroke:#181818;stroke-width:0.5;" x1="22.5" x2="1021.5" y1="1056.4754" y2="1056.4754"/><ellipse cx="32.5" cy="1071.5094" fill="#84BE84" rx="3" ry="3" style="stroke:#038048;stroke-width:1.0;"/><text fill="#000000" font-family="sans-serif" font-size="14" lengthAdjust="spacing" textLength="39" x="41.5" y="1075.4414">MD4()</text><ellipse cx="32.5" cy="1090.5773" fill="#84BE84" rx="3" ry="3" style="stroke:#038048;stroke-width:1.0;"/><text fill="#000000" font-family="sans-serif" font-size="14" lengthAdjust="spacing" textLength="55" x="41.5" y="1094.5093">~MD41()</text><ellipse cx="32.5" cy="1109.6452" fill="#84BE84" rx="3" ry="3" style="stroke:#038048;stroke-width:1.0;"/><text fill="#000000" font-family="sans-serif" font-size="14" lengthAdjust="spacing" textLength="477" x="41.5" y="1113.5772">hash(inputV : std::vector&lt;unsigned char&gt;) : std::vector&lt;unsigned char&gt;</text><ellipse cx="32.5" cy="1128.7131" fill="#84BE84" rx="3" ry="3" style="stroke:#038048;stroke-width:1.0;"/><text fill="#000000" font-family="sans-serif" font-size="14" lengthAdjust="spacing" textLength="975" x="41.5" y="1132.6451">hash(inputV : std::vector&lt;unsigned char&gt;, a : uint32_t, b : uint32_t, c : uint32_t, d : uint32_t, messageSize: std::size_t) : std::vector&lt;unsigned char&gt;</text><rect fill="#F24D5C" height="6" style="stroke:#C82930;stroke-width:1.0;" width="6" x="29.5" y="1144.781"/><text fill="#000000" font-family="sans-serif" font-size="14" lengthAdjust="spacing" textLength="280" x="41.5" y="1151.713">initialization(sizeInputV : std::size_t) : void</text><rect fill="#F24D5C" height="6" style="stroke:#C82930;stroke-width:1.0;" width="6" x="29.5" y="1163.849"/><text fill="#000000" font-family="sans-serif" font-size="14" lengthAdjust="spacing" textLength="609" x="41.5" y="1170.7809">initialization(sizeInputV : std::size_t, a : uint32_t, b : uint32_t, c : uint32_t, d : uint32_t) : void</text><rect fill="#F24D5C" height="6" style="stroke:#C82930;stroke-width:1.0;" width="6" x="29.5" y="1182.9169"/><text fill="#000000" font-family="sans-serif" font-size="14" lengthAdjust="spacing" textLength="384" x="41.5" y="1189.8489">preProcessing(inputV : std::vector&lt;unsigned char&gt;) : void</text><rect fill="#F24D5C" height="6" style="stroke:#C82930;stroke-width:1.0;" width="6" x="29.5" y="1201.9848"/><text fill="#000000" font-family="sans-serif" font-size="14" lengthAdjust="spacing" textLength="122" x="41.5" y="1208.9168">processing() : void</text><rect fill="#F24D5C" height="6" style="stroke:#C82930;stroke-width:1.0;" width="6" x="29.5" y="1221.0527"/><text fill="#000000" font-family="sans-serif" font-size="14" lengthAdjust="spacing" textLength="304" x="41.5" y="1227.9847">leftRotate(value : uint32_t, bits : int) : uint32_t</text></g><!--class Server--><g id="elem_Server"><rect codeLine="16" fill="#F1F1F1" height="181.4754" id="Server" rx="2.5" ry="2.5" style="stroke:#181818;stroke-width:0.5;" width="613" x="63.5" y="401"/><ellipse cx="344.25" cy="417" fill="#ADD1B2" rx="11" ry="11" style="stroke:#181818;stroke-width:1.0;"/><path d="M347.2188,422.6406 Q346.6406,422.9375 346,423.0781 Q345.3594,423.2344 344.6563,423.2344 Q342.1563,423.2344 340.8281,421.5938 Q339.5156,419.9375 339.5156,416.8125 Q339.5156,413.6875 340.8281,412.0313 Q342.1563,410.375 344.6563,410.375 Q345.3594,410.375 346,410.5313 Q346.6563,410.6875 347.2188,410.9844 L347.2188,413.7031 Q346.5938,413.125 346,412.8594 Q345.4063,412.5781 344.7813,412.5781 Q343.4375,412.5781 342.75,413.6563 Q342.0625,414.7188 342.0625,416.8125 Q342.0625,418.9063 342.75,419.9844 Q343.4375,421.0469 344.7813,421.0469 Q345.4063,421.0469 346,420.7813 Q346.5938,420.5 347.2188,419.9219 L347.2188,422.6406 Z " fill="#000000"/><text fill="#000000" font-family="sans-serif" font-size="14" lengthAdjust="spacing" textLength="43" x="364.75" y="422.432">Server</text><line style="stroke:#181818;stroke-width:0.5;" x1="64.5" x2="675.5" y1="433" y2="433"/><rect fill="none" height="6" style="stroke:#C82930;stroke-width:1.0;" width="6" x="71.5" y="445.034"/><text fill="#000000" font-family="sans-serif" font-size="14" lengthAdjust="spacing" textLength="119" x="83.5" y="451.9659">_debugFlag : bool</text><rect fill="none" height="6" style="stroke:#C82930;stroke-width:1.0;" width="6" x="71.5" y="464.1019"/><text fill="#000000" font-family="sans-serif" font-size="14" lengthAdjust="spacing" textLength="174" x="83.5" y="471.0339">_debugFlagExtreme : bool</text><rect fill="none" height="6" style="stroke:#C82930;stroke-width:1.0;" width="6" x="71.5" y="483.1698"/><text fill="#000000" font-family="sans-serif" font-size="14" lengthAdjust="spacing" textLength="267" x="83.5" y="490.1018">_keyServer : std::vector&lt;unsigned char&gt;</text><rect fill="none" height="6" style="stroke:#C82930;stroke-width:1.0;" width="6" x="71.5" y="502.2377"/><text fill="#000000" font-family="sans-serif" font-size="14" lengthAdjust="spacing" textLength="380" x="83.5" y="509.1697">_md : std::shared_ptr&lt;MyCryptoLibrary::MessageDigest&gt;</text><line style="stroke:#181818;stroke-width:0.5;" x1="64.5" x2="675.5" y1="517.2717" y2="517.2717"/><ellipse cx="74.5" cy="532.3056" fill="#84BE84" rx="3" ry="3" style="stroke:#038048;stroke-width:1.0;"/><text fill="#000000" font-family="sans-serif" font-size="14" lengthAdjust="spacing" textLength="164" x="83.5" y="536.2376">Server(debugFlag : bool)</text><ellipse cx="74.5" cy="551.3735" fill="#84BE84" rx="3" ry="3" style="stroke:#038048;stroke-width:1.0;"/><text fill="#000000" font-family="sans-serif" font-size="14" lengthAdjust="spacing" textLength="59" x="83.5" y="555.3055">~Server()</text><ellipse cx="74.5" cy="570.4415" fill="#84BE84" rx="3" ry="3" style="stroke:#038048;stroke-width:1.0;"/><text fill="#000000" font-family="sans-serif" font-size="14" lengthAdjust="spacing" textLength="587" x="83.5" y="574.3734">validateMac(msg : std::vector&lt;unsigned char&gt;, mac : std::vector&lt;unsigned char&gt;) : bool</text></g><!--class Attacker--><g id="elem_Attacker"><rect codeLine="57" fill="#F1F1F1" height="314.9508" id="Attacker" rx="2.5" ry="2.5" style="stroke:#181818;stroke-width:0.5;" width="778" x="161" y="7"/><ellipse cx="518.25" cy="23" fill="#ADD1B2" rx="11" ry="11" style="stroke:#181818;stroke-width:1.0;"/><path d="M521.2188,28.6406 Q520.6406,28.9375 520,29.0781 Q519.3594,29.2344 518.6563,29.2344 Q516.1563,29.2344 514.8281,27.5938 Q513.5156,25.9375 513.5156,22.8125 Q513.5156,19.6875 514.8281,18.0313 Q516.1563,16.375 518.6563,16.375 Q519.3594,16.375 520,16.5313 Q520.6563,16.6875 521.2188,16.9844 L521.2188,19.7031 Q520.5938,19.125 520,18.8594 Q519.4063,18.5781 518.7813,18.5781 Q517.4375,18.5781 516.75,19.6563 Q516.0625,20.7188 516.0625,22.8125 Q516.0625,24.9063 516.75,25.9844 Q517.4375,27.0469 518.7813,27.0469 Q519.4063,27.0469 520,26.7813 Q520.5938,26.5 521.2188,25.9219 L521.2188,28.6406 Z " fill="#000000"/><text fill="#000000" font-family="sans-serif" font-size="14" lengthAdjust="spacing" textLength="55" x="538.75" y="28.432">Attacker</text><line style="stroke:#181818;stroke-width:0.5;" x1="162" x2="938" y1="39" y2="39"/><rect fill="none" height="6" style="stroke:#C82930;stroke-width:1.0;" width="6" x="169" y="51.034"/><text fill="#000000" font-family="sans-serif" font-size="14" lengthAdjust="spacing" textLength="119" x="181" y="57.9659">_debugFlag : bool</text><rect fill="none" height="6" style="stroke:#C82930;stroke-width:1.0;" width="6" x="169" y="70.1019"/><text fill="#000000" font-family="sans-serif" font-size="14" lengthAdjust="spacing" textLength="174" x="181" y="77.0339">_debugFlagExtreme : bool</text><rect fill="none" height="6" style="stroke:#C82930;stroke-width:1.0;" width="6" x="169" y="89.1698"/><text fill="#000000" font-family="sans-serif" font-size="14" lengthAdjust="spacing" text-decoration="underline" textLength="156" x="181" y="96.1018">_md4DigestLength : int</text><rect fill="none" height="6" style="stroke:#C82930;stroke-width:1.0;" width="6" x="169" y="108.2377"/><text fill="#000000" font-family="sans-serif" font-size="14" lengthAdjust="spacing" textLength="203" x="181" y="115.1697">_messageLocation : std::string</text><rect fill="none" height="6" style="stroke:#C82930;stroke-width:1.0;" width="6" x="169" y="127.3056"/><text fill="#000000" font-family="sans-serif" font-size="14" lengthAdjust="spacing" textLength="316" x="181" y="134.2376">_md4 : std::shared_ptr&lt;MyCryptoLibrary::MD4&gt;</text><rect fill="none" height="6" style="stroke:#C82930;stroke-width:1.0;" width="6" x="169" y="146.3735"/><text fill="#000000" font-family="sans-serif" font-size="14" lengthAdjust="spacing" textLength="221" x="181" y="153.3055">_server : std::shared_ptr&lt;Server&gt;</text><rect fill="none" height="6" style="stroke:#C82930;stroke-width:1.0;" width="6" x="169" y="165.4415"/><text fill="#000000" font-family="sans-serif" font-size="14" lengthAdjust="spacing" textLength="314" x="181" y="172.3734">_msgParsed : MessageFormat::MessageParsed</text><line style="stroke:#181818;stroke-width:0.5;" x1="162" x2="938" y1="180.4754" y2="180.4754"/><ellipse cx="172" cy="195.5094" fill="#84BE84" rx="3" ry="3" style="stroke:#038048;stroke-width:1.0;"/><text fill="#000000" font-family="sans-serif" font-size="14" lengthAdjust="spacing" textLength="399" x="181" y="199.4414">Attacker(server : std::shared_ptr&lt;Server&gt;, debugFlag : bool)</text><ellipse cx="172" cy="214.5773" fill="#84BE84" rx="3" ry="3" style="stroke:#038048;stroke-width:1.0;"/><text fill="#000000" font-family="sans-serif" font-size="14" lengthAdjust="spacing" textLength="71" x="181" y="218.5093">~Attacker()</text><ellipse cx="172" cy="233.6452" fill="#84BE84" rx="3" ry="3" style="stroke:#038048;stroke-width:1.0;"/><text fill="#000000" font-family="sans-serif" font-size="14" lengthAdjust="spacing" textLength="247" x="181" y="237.5772">lengthExtensionAttackAtMD4 () : void</text><rect fill="#F24D5C" height="6" style="stroke:#C82930;stroke-width:1.0;" width="6" x="169" y="249.7131"/><text fill="#000000" font-family="sans-serif" font-size="14" lengthAdjust="spacing" text-decoration="underline" textLength="752" x="181" y="256.6451">extractionMD4InternalState(macByteFormat : std::vector&lt;unsigned char&gt;) : MD4InternalState::MD4InternalState</text><rect fill="#F24D5C" height="6" style="stroke:#C82930;stroke-width:1.0;" width="6" x="169" y="268.781"/><text fill="#000000" font-family="sans-serif" font-size="14" lengthAdjust="spacing" textLength="432" x="181" y="275.713">extractMessage(messageLocation : std::string) const : std::string</text><rect fill="#F24D5C" height="6" style="stroke:#C82930;stroke-width:1.0;" width="6" x="169" y="287.849"/><text fill="#000000" font-family="sans-serif" font-size="14" lengthAdjust="spacing" textLength="532" x="181" y="294.7809">computeMD4padding(message : std::string) const : std::vector&lt;unsigned char&gt;</text><rect fill="#F24D5C" height="6" style="stroke:#C82930;stroke-width:1.0;" width="6" x="169" y="306.9169"/><text fill="#000000" font-family="sans-serif" font-size="14" lengthAdjust="spacing" textLength="518" x="181" y="313.8489">tamperMessageTry(messageParsed : MessageFormat::MessageParsed) : bool</text></g><!--reverse link MessageDigest to MD4--><g id="link_MessageDigest_MD4"><path codeLine="54" d="M427.8121,820.7437 C436.8921,843.6537 441.19,854.52 452.46,882.98 " fill="none" id="MessageDigest-backto-MD4" style="stroke:#181818;stroke-width:1.0;"/><polygon fill="none" points="421.18,804.01,422.2342,822.9544,433.39,818.533,421.18,804.01" style="stroke:#181818;stroke-width:1.0;"/><text fill="#000000" font-family="sans-serif" font-size="13" lengthAdjust="spacing" textLength="45" x="440" y="848.897">inherits</text></g><!--link Server to MessageDigest--><g id="link_Server_MessageDigest"><path codeLine="75" d="M379.99,582.05 C383.81,616.27 387.3953,648.4069 390.8053,678.9969 " fill="none" id="Server-to-MessageDigest" style="stroke:#181818;stroke-width:1.0;"/><polygon fill="#181818" points="391.47,684.96,394.4483,675.5723,390.9161,679.9908,386.4975,676.4586,391.47,684.96" style="stroke:#181818;stroke-width:1.0;"/><text fill="#000000" font-family="sans-serif" font-size="13" lengthAdjust="spacing" textLength="31" x="386" y="626.897">has a</text></g><!--link Attacker to MD4--><g id="link_Attacker_MD4"><path codeLine="76" d="M661.66,322.2 C674.96,347.52 686.47,374.24 694,401 C742.64,573.8 723.38,633.57 667,804 C658.26,830.43 649.3058,851.8347 636.4158,877.5847 " fill="none" id="Attacker-to-MD4" style="stroke:#181818;stroke-width:1.0;"/><polygon fill="#181818" points="633.73,882.95,641.3355,876.6926,635.9682,878.4789,634.1818,873.1115,633.73,882.95" style="stroke:#181818;stroke-width:1.0;"/><text fill="#000000" font-family="sans-serif" font-size="13" lengthAdjust="spacing" textLength="31" x="719" y="626.897">has a</text></g><!--link Attacker to Server--><g id="link_Attacker_Server"><path codeLine="77" d="M463.16,322.29 C448.24,349.23 436.1073,371.1414 422.5973,395.5314 " fill="none" id="Attacker-to-Server" style="stroke:#181818;stroke-width:1.0;"/><polygon fill="#181818" points="419.69,400.78,427.55,394.8453,422.1127,396.4062,420.5519,390.9689,419.69,400.78" style="stroke:#181818;stroke-width:1.0;"/><text fill="#000000" font-family="sans-serif" font-size="13" lengthAdjust="spacing" textLength="31" x="445" y="366.897">has a</text></g><!--SRC=[jLRTQzim47_tNo7wvB1ci2ti8OH0jwoiqBAobhq6HRuvehPaf7DesdL_-ywHx5YEyz6n-KttVVUx3okUWosu07O3rl8KBhN9ERBdYD4dCcvjXpEPM3IbmEdK2rNV6pOlJSR6p68o7fE0L6cRcTlq09EB7kPBz195QXlUR7Ib48pYsHroX332BdDVa3AGyavN852RIKdC3-_dEDswTzRlmAp0U4D3DazWKQQN6QzIMcYTxT2_FAA173hi1rXxIns_oifKGSB4afjfBPqdJKs83CcyG3EvMNyswmBrjLmORjRZiOTc9bEmFl38fUfSnTrO1vxzs_FhzufdCg6Qt70Hjy3g3V6SjH3hbHZKgOSGXj7tzPXBXE3Z2mAGxm0OYFdWVKBxMKjkbx5KHOa_ZaPz11ZA9-YwLd24cPLFyAr4SlILN3Ru4NMERJaNIy6J19BZFhqI9ycwHTlqnHwws4DFzj3pp3C-ZeZHhlbirAdqRFJkVnNuTGRFMRigvsmHl4JmIe9NxhhbZh09O1gSYeTK4YKDpHD7gLLSQLy50M_jhRHCNg_vjxdrU2mCt1ejA6LQhgS2jMEZCT33pU0dVjVLKerfavGGHYxH4e7UWsxl-NdgJF-luN0pN6Ds9jKI3EcVRTVn1I8N3_zW8UV9o7cy1fNYqeN8dYsb8SLB8-LYkzPYWrVFfNAcJbhNir6pu6rm2rfQRZDl3u5DRxcncqqHNE9c-pjsv3TvNPxuc0Dgctt7eR5HKx9DXQYCG7sYbUDVO0LIs0v31e-RnKrItQiSqzdujCRwH-9O0tRLD-Nh_0E4M7dNlYpnGUG6J6XbiHTEeNCQ4I1trOwkMjwREcZYq3b7dXTWV63tPbqRF0dPzZNrVn33uRHxJj-6GqIpGrkKyREecPTU9JTcVQBDpqhD_GC0]--></g></svg>