<?xml version="1.0" encoding="us-ascii" standalone="no"?><svg xmlns="http://www.w3.org/2000/svg" xmlns:xlink="http://www.w3.org/1999/xlink" contentStyleType="text/css" height="948px" preserveAspectRatio="none" style="width:1070px;height:948px;background:#FFFFFF;" version="1.1" viewBox="0 0 1070 948" width="1070px" zoomAndPan="magnify"><defs/><g><rect fill="#FFFFFF" height="164.5301" style="stroke:#181818;stroke-width:1.0;" width="10" x="458.5" y="293.01"/><rect fill="#FFFFFF" height="164.5301" style="stroke:#181818;stroke-width:1.0;" width="10" x="458.5" y="612.3642"/><rect fill="none" height="385.4722" style="stroke:#000000;stroke-width:1.5;" width="919.5" x="145" y="132.7739"/><rect fill="none" height="351.7662" style="stroke:#000000;stroke-width:1.5;" width="899.5" x="155" y="159.4799"/><rect fill="none" height="254.6481" style="stroke:#000000;stroke-width:1.5;" width="879.5" x="165" y="249.598"/><line style="stroke:#181818;stroke-width:0.5;stroke-dasharray:5.0,5.0;" x1="23" x2="23" y1="84.0679" y2="865.3063"/><line style="stroke:#181818;stroke-width:0.5;stroke-dasharray:5.0,5.0;" x1="209" x2="209" y1="84.0679" y2="865.3063"/><line style="stroke:#181818;stroke-width:0.5;stroke-dasharray:5.0,5.0;" x1="463" x2="463" y1="84.0679" y2="865.3063"/><line style="stroke:#181818;stroke-width:0.5;stroke-dasharray:5.0,5.0;" x1="789.5" x2="789.5" y1="84.0679" y2="865.3063"/><line style="stroke:#181818;stroke-width:0.5;stroke-dasharray:5.0,5.0;" x1="940.5" x2="940.5" y1="84.0679" y2="865.3063"/><text fill="#000000" font-family="sans-serif" font-size="14" lengthAdjust="spacing" textLength="31" x="5" y="79.9659">User</text><ellipse cx="23.5" cy="13.5" fill="#E2E2F0" rx="8" ry="8" style="stroke:#181818;stroke-width:0.5;"/><path d="M23.5,21.5 L23.5,48.5 M10.5,29.5 L36.5,29.5 M23.5,48.5 L10.5,63.5 M23.5,48.5 L36.5,63.5 " fill="none" style="stroke:#181818;stroke-width:0.5;"/><text fill="#000000" font-family="sans-serif" font-size="14" lengthAdjust="spacing" textLength="31" x="5" y="879.2722">User</text><ellipse cx="23.5" cy="891.8742" fill="#E2E2F0" rx="8" ry="8" style="stroke:#181818;stroke-width:0.5;"/><path d="M23.5,899.8742 L23.5,926.8742 M10.5,907.8742 L36.5,907.8742 M23.5,926.8742 L10.5,941.8742 M23.5,926.8742 L36.5,941.8742 " fill="none" style="stroke:#181818;stroke-width:0.5;"/><rect fill="#E2E2F0" height="33.0679" rx="2.5" ry="2.5" style="stroke:#181818;stroke-width:0.5;" width="69" x="175" y="50"/><text fill="#000000" font-family="sans-serif" font-size="14" lengthAdjust="spacing" textLength="55" x="182" y="71.9659">Attacker</text><rect fill="#E2E2F0" height="33.0679" rx="2.5" ry="2.5" style="stroke:#181818;stroke-width:0.5;" width="69" x="175" y="864.3063"/><text fill="#000000" font-family="sans-serif" font-size="14" lengthAdjust="spacing" textLength="55" x="182" y="886.2722">Attacker</text><rect fill="#E2E2F0" height="33.0679" rx="2.5" ry="2.5" style="stroke:#181818;stroke-width:0.5;" width="57" x="435" y="50"/><text fill="#000000" font-family="sans-serif" font-size="14" lengthAdjust="spacing" textLength="43" x="442" y="71.9659">Server</text><rect fill="#E2E2F0" height="33.0679" rx="2.5" ry="2.5" style="stroke:#181818;stroke-width:0.5;" width="57" x="435" y="864.3063"/><text fill="#000000" font-family="sans-serif" font-size="14" lengthAdjust="spacing" textLength="43" x="442" y="886.2722">Server</text><rect fill="#E2E2F0" height="33.0679" rx="2.5" ry="2.5" style="stroke:#181818;stroke-width:0.5;" width="96" x="741.5" y="50"/><text fill="#000000" font-family="sans-serif" font-size="14" lengthAdjust="spacing" textLength="82" x="748.5" y="71.9659">HMAC_SHA1</text><rect fill="#E2E2F0" height="33.0679" rx="2.5" ry="2.5" style="stroke:#181818;stroke-width:0.5;" width="96" x="741.5" y="864.3063"/><text fill="#000000" font-family="sans-serif" font-size="14" lengthAdjust="spacing" textLength="82" x="748.5" y="886.2722">HMAC_SHA1</text><rect fill="#E2E2F0" height="33.0679" rx="2.5" ry="2.5" style="stroke:#181818;stroke-width:0.5;" width="187" x="847.5" y="50"/><text fill="#000000" font-family="sans-serif" font-size="14" lengthAdjust="spacing" textLength="173" x="854.5" y="71.9659">MessageExtractionFacility</text><rect fill="#E2E2F0" height="33.0679" rx="2.5" ry="2.5" style="stroke:#181818;stroke-width:0.5;" width="187" x="847.5" y="864.3063"/><text fill="#000000" font-family="sans-serif" font-size="14" lengthAdjust="spacing" textLength="173" x="854.5" y="886.2722">MessageExtractionFacility</text><rect fill="#FFFFFF" height="164.5301" style="stroke:#181818;stroke-width:1.0;" width="10" x="458.5" y="293.01"/><rect fill="#FFFFFF" height="164.5301" style="stroke:#181818;stroke-width:1.0;" width="10" x="458.5" y="612.3642"/><polygon fill="#181818" points="197.5,113.7739,207.5,117.7739,197.5,121.7739,201.5,117.7739" style="stroke:#181818;stroke-width:1.0;"/><line style="stroke:#181818;stroke-width:1.0;" x1="23.5" x2="203.5" y1="117.7739" y2="117.7739"/><text fill="#000000" font-family="sans-serif" font-size="13" lengthAdjust="spacing" textLength="162" x="30.5" y="111.9649">breakHmacSHA1(fileName)</text><path d="M145,132.7739 L218,132.7739 L218,142.4799 L208,152.4799 L145,152.4799 L145,132.7739 " fill="#EEEEEE" style="stroke:#000000;stroke-width:1.5;"/><rect fill="none" height="385.4722" style="stroke:#000000;stroke-width:1.5;" width="919.5" x="145" y="132.7739"/><text fill="#000000" font-family="sans-serif" font-size="13" font-weight="bold" lengthAdjust="spacing" textLength="28" x="160" y="147.6709">loop</text><text fill="#000000" font-family="sans-serif" font-size="11" font-weight="bold" lengthAdjust="spacing" textLength="165" x="233" y="146.5328">[for each byte (i) in signature]</text><path d="M155,159.4799 L228,159.4799 L228,169.186 L218,179.186 L155,179.186 L155,159.4799 " fill="#EEEEEE" style="stroke:#000000;stroke-width:1.5;"/><rect fill="none" height="351.7662" style="stroke:#000000;stroke-width:1.5;" width="899.5" x="155" y="159.4799"/><text fill="#000000" font-family="sans-serif" font-size="13" font-weight="bold" lengthAdjust="spacing" textLength="28" x="170" y="174.377">loop</text><text fill="#000000" font-family="sans-serif" font-size="11" font-weight="bold" lengthAdjust="spacing" textLength="144" x="243" y="173.2389">[for each guess (j = 0..255)]</text><polygon fill="#181818" points="929,198.892,939,202.892,929,206.892,933,202.892" style="stroke:#181818;stroke-width:1.0;"/><line style="stroke:#181818;stroke-width:1.0;" x1="209.5" x2="935" y1="202.892" y2="202.892"/><text fill="#000000" font-family="sans-serif" font-size="13" lengthAdjust="spacing" textLength="146" x="216.5" y="197.083">toHexString(signatureV)</text><polygon fill="#181818" points="220.5,230.598,210.5,234.598,220.5,238.598,216.5,234.598" style="stroke:#181818;stroke-width:1.0;"/><line style="stroke:#181818;stroke-width:1.0;stroke-dasharray:2.0,2.0;" x1="214.5" x2="940" y1="234.598" y2="234.598"/><text fill="#000000" font-family="sans-serif" font-size="13" lengthAdjust="spacing" textLength="149" x="226.5" y="228.789">signature in hexadecimal</text><path d="M165,249.598 L238,249.598 L238,259.304 L228,269.304 L165,269.304 L165,249.598 " fill="#EEEEEE" style="stroke:#000000;stroke-width:1.5;"/><rect fill="none" height="254.6481" style="stroke:#000000;stroke-width:1.5;" width="879.5" x="165" y="249.598"/><text fill="#000000" font-family="sans-serif" font-size="13" font-weight="bold" lengthAdjust="spacing" textLength="28" x="180" y="264.495">loop</text><text fill="#000000" font-family="sans-serif" font-size="11" font-weight="bold" lengthAdjust="spacing" textLength="130" x="253" y="263.3569">[_attackSamples times]</text><polygon fill="#181818" points="446.5,289.01,456.5,293.01,446.5,297.01,450.5,293.01" style="stroke:#181818;stroke-width:1.0;"/><line style="stroke:#181818;stroke-width:1.0;" x1="209.5" x2="452.5" y1="293.01" y2="293.01"/><text fill="#000000" font-family="sans-serif" font-size="13" lengthAdjust="spacing" textLength="202" x="216.5" y="287.201">sendRequest(signature, fileName)</text><polygon fill="#181818" points="777.5,320.716,787.5,324.716,777.5,328.716,781.5,324.716" style="stroke:#181818;stroke-width:1.0;"/><line style="stroke:#181818;stroke-width:1.0;" x1="468.5" x2="783.5" y1="324.716" y2="324.716"/><text fill="#000000" font-family="sans-serif" font-size="13" lengthAdjust="spacing" textLength="85" x="475.5" y="318.907">hmac(key, file)</text><polygon fill="#181818" points="479.5,352.4221,469.5,356.4221,479.5,360.4221,475.5,356.4221" style="stroke:#181818;stroke-width:1.0;"/><line style="stroke:#181818;stroke-width:1.0;stroke-dasharray:2.0,2.0;" x1="473.5" x2="788.5" y1="356.4221" y2="356.4221"/><text fill="#000000" font-family="sans-serif" font-size="13" lengthAdjust="spacing" textLength="33" x="485.5" y="350.6131">hmac</text><polygon fill="#181818" points="929,384.1281,939,388.1281,929,392.1281,933,388.1281" style="stroke:#181818;stroke-width:1.0;"/><line style="stroke:#181818;stroke-width:1.0;" x1="468.5" x2="935" y1="388.1281" y2="388.1281"/><text fill="#000000" font-family="sans-serif" font-size="13" lengthAdjust="spacing" textLength="135" x="475.5" y="382.3191">hexToBytes(signature)</text><polygon fill="#181818" points="479.5,415.8341,469.5,419.8341,479.5,423.8341,475.5,419.8341" style="stroke:#181818;stroke-width:1.0;"/><line style="stroke:#181818;stroke-width:1.0;stroke-dasharray:2.0,2.0;" x1="473.5" x2="940" y1="419.8341" y2="419.8341"/><text fill="#000000" font-family="sans-serif" font-size="13" lengthAdjust="spacing" textLength="149" x="485.5" y="414.0251">signature in hexadecimal</text><line style="stroke:#181818;stroke-width:1.0;" x1="468.5" x2="510.5" y1="456.5401" y2="456.5401"/><line style="stroke:#181818;stroke-width:1.0;" x1="510.5" x2="510.5" y1="456.5401" y2="469.5401"/><line style="stroke:#181818;stroke-width:1.0;" x1="463.5" x2="510.5" y1="469.5401" y2="469.5401"/><polygon fill="#181818" points="473.5,465.5401,463.5,469.5401,473.5,473.5401,469.5,469.5401" style="stroke:#181818;stroke-width:1.0;"/><text fill="#000000" font-family="sans-serif" font-size="13" lengthAdjust="spacing" textLength="302" x="475.5" y="450.7311">insecureSignatureCompare(sigGuess, sigExpected)</text><polygon fill="#181818" points="220.5,492.2461,210.5,496.2461,220.5,500.2461,216.5,496.2461" style="stroke:#181818;stroke-width:1.0;"/><line style="stroke:#181818;stroke-width:1.0;stroke-dasharray:2.0,2.0;" x1="214.5" x2="462.5" y1="496.2461" y2="496.2461"/><text fill="#000000" font-family="sans-serif" font-size="13" lengthAdjust="spacing" textLength="189" x="226.5" y="490.4371">cpr::Response (with timing leak)</text><polygon fill="#181818" points="929,544.9521,939,548.9521,929,552.9521,933,548.9521" style="stroke:#181818;stroke-width:1.0;"/><line style="stroke:#181818;stroke-width:1.0;" x1="209.5" x2="935" y1="548.9521" y2="548.9521"/><text fill="#000000" font-family="sans-serif" font-size="13" lengthAdjust="spacing" textLength="146" x="216.5" y="543.1431">toHexString(signatureV)</text><polygon fill="#181818" points="220.5,576.6582,210.5,580.6582,220.5,584.6582,216.5,580.6582" style="stroke:#181818;stroke-width:1.0;"/><line style="stroke:#181818;stroke-width:1.0;stroke-dasharray:2.0,2.0;" x1="214.5" x2="940" y1="580.6582" y2="580.6582"/><text fill="#000000" font-family="sans-serif" font-size="13" lengthAdjust="spacing" textLength="149" x="226.5" y="574.8492">signature in hexadecimal</text><polygon fill="#181818" points="446.5,608.3642,456.5,612.3642,446.5,616.3642,450.5,612.3642" style="stroke:#181818;stroke-width:1.0;"/><line style="stroke:#181818;stroke-width:1.0;" x1="209.5" x2="452.5" y1="612.3642" y2="612.3642"/><text fill="#000000" font-family="sans-serif" font-size="13" lengthAdjust="spacing" textLength="230" x="216.5" y="606.5552">sendRequest(final signature, fileName)</text><polygon fill="#181818" points="777.5,640.0702,787.5,644.0702,777.5,648.0702,781.5,644.0702" style="stroke:#181818;stroke-width:1.0;"/><line style="stroke:#181818;stroke-width:1.0;" x1="468.5" x2="783.5" y1="644.0702" y2="644.0702"/><text fill="#000000" font-family="sans-serif" font-size="13" lengthAdjust="spacing" textLength="85" x="475.5" y="638.2612">hmac(key, file)</text><polygon fill="#181818" points="479.5,671.7762,469.5,675.7762,479.5,679.7762,475.5,675.7762" style="stroke:#181818;stroke-width:1.0;"/><line style="stroke:#181818;stroke-width:1.0;stroke-dasharray:2.0,2.0;" x1="473.5" x2="788.5" y1="675.7762" y2="675.7762"/><text fill="#000000" font-family="sans-serif" font-size="13" lengthAdjust="spacing" textLength="33" x="485.5" y="669.9672">hmac</text><polygon fill="#181818" points="929,703.4822,939,707.4822,929,711.4822,933,707.4822" style="stroke:#181818;stroke-width:1.0;"/><line style="stroke:#181818;stroke-width:1.0;" x1="468.5" x2="935" y1="707.4822" y2="707.4822"/><text fill="#000000" font-family="sans-serif" font-size="13" lengthAdjust="spacing" textLength="135" x="475.5" y="701.6732">hexToBytes(signature)</text><polygon fill="#181818" points="479.5,735.1882,469.5,739.1882,479.5,743.1882,475.5,739.1882" style="stroke:#181818;stroke-width:1.0;"/><line style="stroke:#181818;stroke-width:1.0;stroke-dasharray:2.0,2.0;" x1="473.5" x2="940" y1="739.1882" y2="739.1882"/><text fill="#000000" font-family="sans-serif" font-size="13" lengthAdjust="spacing" textLength="149" x="485.5" y="733.3792">signature in hexadecimal</text><line style="stroke:#181818;stroke-width:1.0;" x1="468.5" x2="510.5" y1="775.8943" y2="775.8943"/><line style="stroke:#181818;stroke-width:1.0;" x1="510.5" x2="510.5" y1="775.8943" y2="788.8943"/><line style="stroke:#181818;stroke-width:1.0;" x1="463.5" x2="510.5" y1="788.8943" y2="788.8943"/><polygon fill="#181818" points="473.5,784.8943,463.5,788.8943,473.5,792.8943,469.5,788.8943" style="stroke:#181818;stroke-width:1.0;"/><text fill="#000000" font-family="sans-serif" font-size="13" lengthAdjust="spacing" textLength="302" x="475.5" y="770.0853">insecureSignatureCompare(sigGuess, sigExpected)</text><polygon fill="#181818" points="220.5,811.6003,210.5,815.6003,220.5,819.6003,216.5,815.6003" style="stroke:#181818;stroke-width:1.0;"/><line style="stroke:#181818;stroke-width:1.0;stroke-dasharray:2.0,2.0;" x1="214.5" x2="462.5" y1="815.6003" y2="815.6003"/><text fill="#000000" font-family="sans-serif" font-size="13" lengthAdjust="spacing" textLength="161" x="226.5" y="809.7913">cpr::Response (success/fail)</text><polygon fill="#181818" points="34.5,843.3063,24.5,847.3063,34.5,851.3063,30.5,847.3063" style="stroke:#181818;stroke-width:1.0;"/><line style="stroke:#181818;stroke-width:1.0;stroke-dasharray:2.0,2.0;" x1="28.5" x2="208.5" y1="847.3063" y2="847.3063"/><text fill="#000000" font-family="sans-serif" font-size="13" lengthAdjust="spacing" textLength="154" x="40.5" y="841.4973">(cpr::Response, signature)</text><!--SRC=[dLExRi904Epz5IigMmBoa6YG4ib196wSWalIekLOu89VkJi8_7tsR8En10Abm0KpExCxOwEqkOPFGzehK5ibLO6PXKveBSerwGwWWR2D2TBR6X5j98h3qLH4uKC9Hcqm9cDmIUETrIYjohDNb2fHTb-IOyzpMq3l6K8OmamJhgCKfLFp5ogXTqmfy98yBs31AnFA5Spsbi1N0QWCZ5fcQ3UQF80sQxbXP_2_uGdk-_t7mI1W2h0DUyNiPVE8Ti9gbItzeyfNHOgXLszqH9pPYdOu9wbIJ4fQQJZ5CZI1QP6G0QjICYLQUmcdGjbyGZ-yaMsykj0SMF5TG5lauqJzXt024GkiE1D_JVjgvi2FoZL51P-EkFjusO_yXQCoZULXiBfFNBklLdCybHcIJ1C7_YXFkMToscykwQwJ6kyAafRc1vyvdJkfZbOMUZYSa2borWR_LzcLIu_xW8HVWqg3W_Egf_jvLzkxeRcphInKXWcSxURaX8jzj9kuqi4DwVyxzrRY5xCs6obvzcw1AWbS84mhlyCX-2rgjran-0C0]--></g></svg>