<?xml version="1.0" encoding="us-ascii" standalone="no"?><svg xmlns="http://www.w3.org/2000/svg" xmlns:xlink="http://www.w3.org/1999/xlink" contentStyleType="text/css" height="1635px" preserveAspectRatio="none" style="width:1334px;height:1635px;background:#FFFFFF;" version="1.1" viewBox="0 0 1334 1635" width="1334px" zoomAndPan="magnify"><defs/><g><!--cluster MyCryptoLibrary--><g id="cluster_MyCryptoLibrary"><path d="M8.5,648 L126.5,648 A3.75,3.75 0 0 1 129,650.5 L136,673.0679 L1324.5,673.0679 A2.5,2.5 0 0 1 1327,675.5679 L1327,1625.5 A2.5,2.5 0 0 1 1324.5,1628 L8.5,1628 A2.5,2.5 0 0 1 6,1625.5 L6,650.5 A2.5,2.5 0 0 1 8.5,648 " fill="none" style="stroke:#000000;stroke-width:1.5;"/><line style="stroke:#000000;stroke-width:1.5;" x1="6" x2="136" y1="673.0679" y2="673.0679"/><text fill="#000000" font-family="sans-serif" font-size="14" font-weight="bold" lengthAdjust="spacing" textLength="117" x="10" y="664.9659">MyCryptoLibrary</text></g><!--class HMAC--><g id="elem_HMAC"><rect codeLine="51" fill="#F1F1F1" height="194.8874" id="HMAC" rx="2.5" ry="2.5" style="stroke:#181818;stroke-width:0.5;" width="750" x="291" y="686"/><ellipse cx="635.75" cy="708.706" fill="#ADD1B2" rx="11" ry="11" style="stroke:#181818;stroke-width:1.0;"/><path d="M638.7188,714.3466 Q638.1406,714.6435 637.5,714.7841 Q636.8594,714.9404 636.1563,714.9404 Q633.6563,714.9404 632.3281,713.2998 Q631.0156,711.6435 631.0156,708.5185 Q631.0156,705.3935 632.3281,703.7373 Q633.6563,702.081 636.1563,702.081 Q636.8594,702.081 637.5,702.2373 Q638.1563,702.3935 638.7188,702.6904 L638.7188,705.4091 Q638.0938,704.831 637.5,704.5654 Q636.9063,704.2841 636.2813,704.2841 Q634.9375,704.2841 634.25,705.3623 Q633.5625,706.4248 633.5625,708.5185 Q633.5625,710.6123 634.25,711.6904 Q634.9375,712.7529 636.2813,712.7529 Q636.9063,712.7529 637.5,712.4873 Q638.0938,712.206 638.7188,711.6279 L638.7188,714.3466 Z " fill="#000000"/><text fill="#000000" font-family="sans-serif" font-size="12" font-style="italic" lengthAdjust="spacing" textLength="56" x="654.25" y="703.8281">&#171;abstract&#187;</text><text fill="#000000" font-family="sans-serif" font-size="14" lengthAdjust="spacing" textLength="41" x="661.75" y="722.31">HMAC</text><line style="stroke:#181818;stroke-width:0.5;" x1="292" x2="1040" y1="731.412" y2="731.412"/><polygon fill="none" points="302,741.446,306,745.446,302,749.446,298,745.446" style="stroke:#B38D22;stroke-width:1.0;"/><text fill="#000000" font-family="sans-serif" font-size="14" lengthAdjust="spacing" textLength="150" x="311" y="750.378">_opad : unsigned char</text><polygon fill="none" points="302,760.5139,306,764.5139,302,768.5139,298,764.5139" style="stroke:#B38D22;stroke-width:1.0;"/><text fill="#000000" font-family="sans-serif" font-size="14" lengthAdjust="spacing" textLength="146" x="311" y="769.4459">_ipad : unsigned char</text><polygon fill="none" points="302,779.5818,306,783.5818,302,787.5818,298,783.5818" style="stroke:#B38D22;stroke-width:1.0;"/><text fill="#000000" font-family="sans-serif" font-size="14" lengthAdjust="spacing" textLength="306" x="311" y="788.5138">_sha : std::shared_ptr&lt;MyCryptoLibrary::SHA&gt;</text><line style="stroke:#181818;stroke-width:0.5;" x1="292" x2="1040" y1="796.6158" y2="796.6158"/><ellipse cx="302" cy="811.6497" fill="#84BE84" rx="3" ry="3" style="stroke:#038048;stroke-width:1.0;"/><text fill="#000000" font-family="sans-serif" font-size="14" lengthAdjust="spacing" textLength="49" x="311" y="815.5817">HMAC()</text><ellipse cx="302" cy="830.7177" fill="#84BE84" rx="3" ry="3" style="stroke:#038048;stroke-width:1.0;"/><text fill="#000000" font-family="sans-serif" font-size="14" lengthAdjust="spacing" textLength="57" x="311" y="834.6496">~HMAC()</text><ellipse cx="302" cy="849.7856" fill="#84BE84" rx="3" ry="3" style="stroke:#038048;stroke-width:1.0;"/><text fill="#000000" font-family="sans-serif" font-size="14" lengthAdjust="spacing" textLength="723" x="311" y="853.7176">hmac(key : std::vector&lt;unsigned char&gt;, message : std::vector&lt;unsigned char&gt;) : std::vector&lt;unsigned char&gt;</text><polygon fill="#FFFF44" points="302,863.8535,306,867.8535,302,871.8535,298,867.8535" style="stroke:#B38D22;stroke-width:1.0;"/><text fill="#000000" font-family="sans-serif" font-size="14" lengthAdjust="spacing" textLength="724" x="311" y="872.7855">computeBlockSizedKey(key : std::vector&lt;unsigned char&gt;, blockSize : std::size_t) : std::vector&lt;unsigned char&gt;</text></g><!--class SHA--><g id="elem_SHA"><rect codeLine="22" fill="#F1F1F1" height="118.6158" id="SHA" rx="2.5" ry="2.5" style="stroke:#181818;stroke-width:0.5;" width="503" x="22.5" y="1001"/><ellipse cx="243.75" cy="1023.706" fill="#ADD1B2" rx="11" ry="11" style="stroke:#181818;stroke-width:1.0;"/><path d="M246.7188,1029.3466 Q246.1406,1029.6435 245.5,1029.7841 Q244.8594,1029.9404 244.1563,1029.9404 Q241.6563,1029.9404 240.3281,1028.2998 Q239.0156,1026.6435 239.0156,1023.5185 Q239.0156,1020.3935 240.3281,1018.7373 Q241.6563,1017.081 244.1563,1017.081 Q244.8594,1017.081 245.5,1017.2373 Q246.1563,1017.3935 246.7188,1017.6904 L246.7188,1020.4091 Q246.0938,1019.831 245.5,1019.5654 Q244.9063,1019.2841 244.2813,1019.2841 Q242.9375,1019.2841 242.25,1020.3623 Q241.5625,1021.4248 241.5625,1023.5185 Q241.5625,1025.6123 242.25,1026.6904 Q242.9375,1027.7529 244.2813,1027.7529 Q244.9063,1027.7529 245.5,1027.4873 Q246.0938,1027.206 246.7188,1026.6279 L246.7188,1029.3466 Z " fill="#000000"/><text fill="#000000" font-family="sans-serif" font-size="12" font-style="italic" lengthAdjust="spacing" textLength="56" x="262.25" y="1018.8281">&#171;abstract&#187;</text><text fill="#000000" font-family="sans-serif" font-size="14" lengthAdjust="spacing" textLength="27" x="276.75" y="1037.31">SHA</text><line style="stroke:#181818;stroke-width:0.5;" x1="23.5" x2="524.5" y1="1046.412" y2="1046.412"/><line style="stroke:#181818;stroke-width:0.5;" x1="23.5" x2="524.5" y1="1054.412" y2="1054.412"/><ellipse cx="33.5" cy="1069.446" fill="#84BE84" rx="3" ry="3" style="stroke:#038048;stroke-width:1.0;"/><text fill="#000000" font-family="sans-serif" font-size="14" lengthAdjust="spacing" textLength="35" x="42.5" y="1073.378">SHA()</text><ellipse cx="33.5" cy="1088.5139" fill="#84BE84" rx="3" ry="3" style="stroke:#038048;stroke-width:1.0;"/><text fill="#000000" font-family="sans-serif" font-size="14" lengthAdjust="spacing" textLength="43" x="42.5" y="1092.4459">~SHA()</text><ellipse cx="33.5" cy="1107.5818" fill="#84BE84" rx="3" ry="3" style="stroke:#038048;stroke-width:1.0;"/><text fill="#000000" font-family="sans-serif" font-size="14" lengthAdjust="spacing" textLength="477" x="42.5" y="1111.5138">hash(inputV : std::vector&lt;unsigned char&gt;) : std::vector&lt;unsigned char&gt;</text></g><!--class SHA1--><g id="elem_SHA1"><rect codeLine="28" fill="#F1F1F1" height="372.1546" id="SHA1" rx="2.5" ry="2.5" style="stroke:#181818;stroke-width:0.5;" width="1127" x="22.5" y="1240"/><ellipse cx="564.25" cy="1256" fill="#ADD1B2" rx="11" ry="11" style="stroke:#181818;stroke-width:1.0;"/><path d="M567.2188,1261.6406 Q566.6406,1261.9375 566,1262.0781 Q565.3594,1262.2344 564.6563,1262.2344 Q562.1563,1262.2344 560.8281,1260.5938 Q559.5156,1258.9375 559.5156,1255.8125 Q559.5156,1252.6875 560.8281,1251.0313 Q562.1563,1249.375 564.6563,1249.375 Q565.3594,1249.375 566,1249.5313 Q566.6563,1249.6875 567.2188,1249.9844 L567.2188,1252.7031 Q566.5938,1252.125 566,1251.8594 Q565.4063,1251.5781 564.7813,1251.5781 Q563.4375,1251.5781 562.75,1252.6563 Q562.0625,1253.7188 562.0625,1255.8125 Q562.0625,1257.9063 562.75,1258.9844 Q563.4375,1260.0469 564.7813,1260.0469 Q565.4063,1260.0469 566,1259.7813 Q566.5938,1259.5 567.2188,1258.9219 L567.2188,1261.6406 Z " fill="#000000"/><text fill="#000000" font-family="sans-serif" font-size="14" lengthAdjust="spacing" textLength="35" x="584.75" y="1261.432">SHA1</text><line style="stroke:#181818;stroke-width:0.5;" x1="23.5" x2="1148.5" y1="1272" y2="1272"/><rect fill="none" height="6" style="stroke:#C82930;stroke-width:1.0;" width="6" x="30.5" y="1284.034"/><text fill="#000000" font-family="sans-serif" font-size="14" lengthAdjust="spacing" textLength="192" x="42.5" y="1290.9659">_sizeOutputHash : std::size_t</text><rect fill="none" height="6" style="stroke:#C82930;stroke-width:1.0;" width="6" x="30.5" y="1303.1019"/><text fill="#000000" font-family="sans-serif" font-size="14" lengthAdjust="spacing" textLength="298" x="42.5" y="1310.0339">_inputVpadded : std::vector&lt;unsigned char&gt;</text><rect fill="none" height="6" style="stroke:#C82930;stroke-width:1.0;" width="6" x="30.5" y="1322.1698"/><text fill="#000000" font-family="sans-serif" font-size="14" lengthAdjust="spacing" textLength="89" x="42.5" y="1329.1018">_h0 : uint32_t</text><rect fill="none" height="6" style="stroke:#C82930;stroke-width:1.0;" width="6" x="30.5" y="1341.2377"/><text fill="#000000" font-family="sans-serif" font-size="14" lengthAdjust="spacing" textLength="89" x="42.5" y="1348.1697">_h1 : uint32_t</text><rect fill="none" height="6" style="stroke:#C82930;stroke-width:1.0;" width="6" x="30.5" y="1360.3056"/><text fill="#000000" font-family="sans-serif" font-size="14" lengthAdjust="spacing" textLength="89" x="42.5" y="1367.2376">_h2 : uint32_t</text><rect fill="none" height="6" style="stroke:#C82930;stroke-width:1.0;" width="6" x="30.5" y="1379.3735"/><text fill="#000000" font-family="sans-serif" font-size="14" lengthAdjust="spacing" textLength="89" x="42.5" y="1386.3055">_h3 : uint32_t</text><rect fill="none" height="6" style="stroke:#C82930;stroke-width:1.0;" width="6" x="30.5" y="1398.4415"/><text fill="#000000" font-family="sans-serif" font-size="14" lengthAdjust="spacing" textLength="89" x="42.5" y="1405.3734">_h4 : uint32_t</text><rect fill="none" height="6" style="stroke:#C82930;stroke-width:1.0;" width="6" x="30.5" y="1417.5094"/><text fill="#000000" font-family="sans-serif" font-size="14" lengthAdjust="spacing" textLength="89" x="42.5" y="1424.4414">_ml : uint64_t</text><line style="stroke:#181818;stroke-width:0.5;" x1="23.5" x2="1148.5" y1="1432.5433" y2="1432.5433"/><ellipse cx="33.5" cy="1447.5773" fill="#84BE84" rx="3" ry="3" style="stroke:#038048;stroke-width:1.0;"/><text fill="#000000" font-family="sans-serif" font-size="14" lengthAdjust="spacing" textLength="43" x="42.5" y="1451.5093">SHA1()</text><ellipse cx="33.5" cy="1466.6452" fill="#84BE84" rx="3" ry="3" style="stroke:#038048;stroke-width:1.0;"/><text fill="#000000" font-family="sans-serif" font-size="14" lengthAdjust="spacing" textLength="51" x="42.5" y="1470.5772">~SHA1()</text><ellipse cx="33.5" cy="1485.7131" fill="#84BE84" rx="3" ry="3" style="stroke:#038048;stroke-width:1.0;"/><text fill="#000000" font-family="sans-serif" font-size="14" lengthAdjust="spacing" textLength="477" x="42.5" y="1489.6451">hash(inputV : std::vector&lt;unsigned char&gt;) : std::vector&lt;unsigned char&gt;</text><ellipse cx="33.5" cy="1504.781" fill="#84BE84" rx="3" ry="3" style="stroke:#038048;stroke-width:1.0;"/><text fill="#000000" font-family="sans-serif" font-size="14" lengthAdjust="spacing" textLength="1101" x="42.5" y="1508.713">hash(inputV : std::vector&lt;unsigned char&gt;, h0 : uint32_t, h1 : uint32_t, h2 : uint32_t, h3 : uint32_t, h4 : uint32_t, messageSize: std::size_t) : std::vector&lt;unsigned char&gt;</text><rect fill="#F24D5C" height="6" style="stroke:#C82930;stroke-width:1.0;" width="6" x="30.5" y="1520.849"/><text fill="#000000" font-family="sans-serif" font-size="14" lengthAdjust="spacing" textLength="280" x="42.5" y="1527.7809">initialization(sizeInputV : std::size_t) : void</text><rect fill="#F24D5C" height="6" style="stroke:#C82930;stroke-width:1.0;" width="6" x="30.5" y="1539.9169"/><text fill="#000000" font-family="sans-serif" font-size="14" lengthAdjust="spacing" textLength="735" x="42.5" y="1546.8489">initialization(sizeInputV : std::size_t, h0 : uint32_t, h1 : uint32_t, h2 : uint32_t, h3 : uint32_t, h4 : uint32_t) : void</text><rect fill="#F24D5C" height="6" style="stroke:#C82930;stroke-width:1.0;" width="6" x="30.5" y="1558.9848"/><text fill="#000000" font-family="sans-serif" font-size="14" lengthAdjust="spacing" textLength="384" x="42.5" y="1565.9168">preProcessing(inputV : std::vector&lt;unsigned char&gt;) : void</text><rect fill="#F24D5C" height="6" style="stroke:#C82930;stroke-width:1.0;" width="6" x="30.5" y="1578.0527"/><text fill="#000000" font-family="sans-serif" font-size="14" lengthAdjust="spacing" textLength="122" x="42.5" y="1584.9847">processing() : void</text><rect fill="#F24D5C" height="6" style="stroke:#C82930;stroke-width:1.0;" width="6" x="30.5" y="1597.1206"/><text fill="#000000" font-family="sans-serif" font-size="14" lengthAdjust="spacing" textLength="304" x="42.5" y="1604.0526">leftRotate(value : uint32_t, bits : int) : uint32_t</text></g><!--class HMAC_SHA1--><g id="elem_HMAC_SHA1"><rect codeLine="62" fill="#F1F1F1" height="200.5433" id="HMAC_SHA1" rx="2.5" ry="2.5" style="stroke:#181818;stroke-width:0.5;" width="750" x="561" y="960"/><ellipse cx="890.75" cy="976" fill="#ADD1B2" rx="11" ry="11" style="stroke:#181818;stroke-width:1.0;"/><path d="M893.7188,981.6406 Q893.1406,981.9375 892.5,982.0781 Q891.8594,982.2344 891.1563,982.2344 Q888.6563,982.2344 887.3281,980.5938 Q886.0156,978.9375 886.0156,975.8125 Q886.0156,972.6875 887.3281,971.0313 Q888.6563,969.375 891.1563,969.375 Q891.8594,969.375 892.5,969.5313 Q893.1563,969.6875 893.7188,969.9844 L893.7188,972.7031 Q893.0938,972.125 892.5,971.8594 Q891.9063,971.5781 891.2813,971.5781 Q889.9375,971.5781 889.25,972.6563 Q888.5625,973.7188 888.5625,975.8125 Q888.5625,977.9063 889.25,978.9844 Q889.9375,980.0469 891.2813,980.0469 Q891.9063,980.0469 892.5,979.7813 Q893.0938,979.5 893.7188,978.9219 L893.7188,981.6406 Z " fill="#000000"/><text fill="#000000" font-family="sans-serif" font-size="14" lengthAdjust="spacing" textLength="82" x="911.25" y="981.432">HMAC_SHA1</text><line style="stroke:#181818;stroke-width:0.5;" x1="562" x2="1310" y1="992" y2="992"/><rect fill="none" height="6" style="stroke:#C82930;stroke-width:1.0;" width="6" x="569" y="1004.034"/><text fill="#000000" font-family="sans-serif" font-size="14" lengthAdjust="spacing" textLength="146" x="581" y="1010.9659">_blockSize : std::size_t</text><rect fill="none" height="6" style="stroke:#C82930;stroke-width:1.0;" width="6" x="569" y="1023.1019"/><text fill="#000000" font-family="sans-serif" font-size="14" lengthAdjust="spacing" textLength="244" x="581" y="1030.0339">_opadV : std::vector&lt;unsigned char&gt;</text><rect fill="none" height="6" style="stroke:#C82930;stroke-width:1.0;" width="6" x="569" y="1042.1698"/><text fill="#000000" font-family="sans-serif" font-size="14" lengthAdjust="spacing" textLength="240" x="581" y="1049.1018">_ipadV : std::vector&lt;unsigned char&gt;</text><rect fill="none" height="6" style="stroke:#C82930;stroke-width:1.0;" width="6" x="569" y="1061.2377"/><text fill="#000000" font-family="sans-serif" font-size="14" lengthAdjust="spacing" textLength="259" x="581" y="1068.1697">_keyBlock : std::vector&lt;unsigned char&gt;</text><line style="stroke:#181818;stroke-width:0.5;" x1="562" x2="1310" y1="1076.2717" y2="1076.2717"/><ellipse cx="572" cy="1091.3056" fill="#84BE84" rx="3" ry="3" style="stroke:#038048;stroke-width:1.0;"/><text fill="#000000" font-family="sans-serif" font-size="14" lengthAdjust="spacing" textLength="90" x="581" y="1095.2376">HMAC_SHA1()</text><ellipse cx="572" cy="1110.3735" fill="#84BE84" rx="3" ry="3" style="stroke:#038048;stroke-width:1.0;"/><text fill="#000000" font-family="sans-serif" font-size="14" lengthAdjust="spacing" textLength="98" x="581" y="1114.3055">~HMAC_SHA1()</text><ellipse cx="572" cy="1129.4415" fill="#84BE84" rx="3" ry="3" style="stroke:#038048;stroke-width:1.0;"/><text fill="#000000" font-family="sans-serif" font-size="14" lengthAdjust="spacing" textLength="723" x="581" y="1133.3734">hmac(key : std::vector&lt;unsigned char&gt;, message : std::vector&lt;unsigned char&gt;) : std::vector&lt;unsigned char&gt;</text><rect fill="#F24D5C" height="6" style="stroke:#C82930;stroke-width:1.0;" width="6" x="569" y="1145.5094"/><text fill="#000000" font-family="sans-serif" font-size="14" lengthAdjust="spacing" textLength="724" x="581" y="1152.4414">computeBlockSizedKey(key : std::vector&lt;unsigned char&gt;, blockSize : std::size_t) : std::vector&lt;unsigned char&gt;</text></g><!--class Server--><g id="elem_Server"><rect codeLine="2" fill="#F1F1F1" height="295.8829" id="Server" rx="2.5" ry="2.5" style="stroke:#181818;stroke-width:0.5;" width="689" x="321.5" y="287"/><ellipse cx="640.25" cy="303" fill="#ADD1B2" rx="11" ry="11" style="stroke:#181818;stroke-width:1.0;"/><path d="M643.2188,308.6406 Q642.6406,308.9375 642,309.0781 Q641.3594,309.2344 640.6563,309.2344 Q638.1563,309.2344 636.8281,307.5938 Q635.5156,305.9375 635.5156,302.8125 Q635.5156,299.6875 636.8281,298.0313 Q638.1563,296.375 640.6563,296.375 Q641.3594,296.375 642,296.5313 Q642.6563,296.6875 643.2188,296.9844 L643.2188,299.7031 Q642.5938,299.125 642,298.8594 Q641.4063,298.5781 640.7813,298.5781 Q639.4375,298.5781 638.75,299.6563 Q638.0625,300.7188 638.0625,302.8125 Q638.0625,304.9063 638.75,305.9844 Q639.4375,307.0469 640.7813,307.0469 Q641.4063,307.0469 642,306.7813 Q642.5938,306.5 643.2188,305.9219 L643.2188,308.6406 Z " fill="#000000"/><text fill="#000000" font-family="sans-serif" font-size="14" lengthAdjust="spacing" textLength="43" x="660.75" y="308.432">Server</text><line style="stroke:#181818;stroke-width:0.5;" x1="322.5" x2="1009.5" y1="319" y2="319"/><rect fill="none" height="6" style="stroke:#C82930;stroke-width:1.0;" width="6" x="329.5" y="331.034"/><text fill="#000000" font-family="sans-serif" font-size="14" lengthAdjust="spacing" textLength="267" x="341.5" y="337.9659">_keyServer : std::vector&lt;unsigned char&gt;</text><rect fill="none" height="6" style="stroke:#C82930;stroke-width:1.0;" width="6" x="329.5" y="350.1019"/><text fill="#000000" font-family="sans-serif" font-size="14" lengthAdjust="spacing" textLength="157" x="341.5" y="357.0339">_app : crow::SimpleApp</text><rect fill="none" height="6" style="stroke:#C82930;stroke-width:1.0;" width="6" x="329.5" y="369.1698"/><text fill="#000000" font-family="sans-serif" font-size="14" lengthAdjust="spacing" textLength="333" x="341.5" y="376.1018">_hmac : std::shared_ptr&lt;MyCryptoLibrary::HMAC&gt;</text><rect fill="none" height="6" style="stroke:#C82930;stroke-width:1.0;" width="6" x="329.5" y="388.2377"/><text fill="#000000" font-family="sans-serif" font-size="14" lengthAdjust="spacing" textLength="137" x="341.5" y="395.1697">_portProduction : int</text><rect fill="none" height="6" style="stroke:#C82930;stroke-width:1.0;" width="6" x="329.5" y="407.3056"/><text fill="#000000" font-family="sans-serif" font-size="14" lengthAdjust="spacing" textLength="92" x="341.5" y="414.2376">_portTest : int</text><line style="stroke:#181818;stroke-width:0.5;" x1="322.5" x2="1009.5" y1="422.3396" y2="422.3396"/><ellipse cx="332.5" cy="437.3735" fill="#84BE84" rx="3" ry="3" style="stroke:#038048;stroke-width:1.0;"/><text fill="#000000" font-family="sans-serif" font-size="14" lengthAdjust="spacing" textLength="51" x="341.5" y="441.3055">Server()</text><ellipse cx="332.5" cy="456.4415" fill="#84BE84" rx="3" ry="3" style="stroke:#038048;stroke-width:1.0;"/><text fill="#000000" font-family="sans-serif" font-size="14" lengthAdjust="spacing" textLength="59" x="341.5" y="460.3734">~Server()</text><ellipse cx="332.5" cy="475.5094" fill="#84BE84" rx="3" ry="3" style="stroke:#038048;stroke-width:1.0;"/><text fill="#000000" font-family="sans-serif" font-size="14" lengthAdjust="spacing" textLength="115" x="341.5" y="479.4414">runServer() : void</text><ellipse cx="332.5" cy="494.5773" fill="#84BE84" rx="3" ry="3" style="stroke:#038048;stroke-width:1.0;"/><text fill="#000000" font-family="sans-serif" font-size="14" lengthAdjust="spacing" textLength="143" x="341.5" y="498.5093">runServerTest() : void</text><rect fill="#F24D5C" height="6" style="stroke:#C82930;stroke-width:1.0;" width="6" x="329.5" y="510.6452"/><text fill="#000000" font-family="sans-serif" font-size="14" lengthAdjust="spacing" textLength="132" x="341.5" y="517.5772">setupRoutes() : void</text><rect fill="#F24D5C" height="6" style="stroke:#C82930;stroke-width:1.0;" width="6" x="329.5" y="529.7131"/><text fill="#000000" font-family="sans-serif" font-size="14" lengthAdjust="spacing" textLength="136" x="341.5" y="536.6451">rootEndpoint() : void</text><rect fill="#F24D5C" height="6" style="stroke:#C82930;stroke-width:1.0;" width="6" x="329.5" y="548.781"/><text fill="#000000" font-family="sans-serif" font-size="14" lengthAdjust="spacing" textLength="250" x="341.5" y="555.713">signatureVerificationEndpoint() : void</text><rect fill="#F24D5C" height="6" style="stroke:#C82930;stroke-width:1.0;" width="6" x="329.5" y="567.849"/><text fill="#000000" font-family="sans-serif" font-size="14" lengthAdjust="spacing" text-decoration="underline" textLength="663" x="341.5" y="574.7809">insecureSignatureCompare(v1 : std::vector&lt;unsigned char&gt;, v2 : std::vector&lt;unsigned char&gt;) : void</text></g><!--class Attacker--><g id="elem_Attacker"><rect codeLine="78" fill="#F1F1F1" height="200.5433" id="Attacker" rx="2.5" ry="2.5" style="stroke:#181818;stroke-width:0.5;" width="692" x="320" y="7"/><ellipse cx="634.25" cy="23" fill="#ADD1B2" rx="11" ry="11" style="stroke:#181818;stroke-width:1.0;"/><path d="M637.2188,28.6406 Q636.6406,28.9375 636,29.0781 Q635.3594,29.2344 634.6563,29.2344 Q632.1563,29.2344 630.8281,27.5938 Q629.5156,25.9375 629.5156,22.8125 Q629.5156,19.6875 630.8281,18.0313 Q632.1563,16.375 634.6563,16.375 Q635.3594,16.375 636,16.5313 Q636.6563,16.6875 637.2188,16.9844 L637.2188,19.7031 Q636.5938,19.125 636,18.8594 Q635.4063,18.5781 634.7813,18.5781 Q633.4375,18.5781 632.75,19.6563 Q632.0625,20.7188 632.0625,22.8125 Q632.0625,24.9063 632.75,25.9844 Q633.4375,27.0469 634.7813,27.0469 Q635.4063,27.0469 636,26.7813 Q636.5938,26.5 637.2188,25.9219 L637.2188,28.6406 Z " fill="#000000"/><text fill="#000000" font-family="sans-serif" font-size="14" lengthAdjust="spacing" textLength="55" x="654.75" y="28.432">Attacker</text><line style="stroke:#181818;stroke-width:0.5;" x1="321" x2="1011" y1="39" y2="39"/><rect fill="none" height="6" style="stroke:#C82930;stroke-width:1.0;" width="6" x="328" y="51.034"/><text fill="#000000" font-family="sans-serif" font-size="14" lengthAdjust="spacing" textLength="180" x="340" y="57.9659">_portServerProduction : int</text><rect fill="none" height="6" style="stroke:#C82930;stroke-width:1.0;" width="6" x="328" y="70.1019"/><text fill="#000000" font-family="sans-serif" font-size="14" lengthAdjust="spacing" textLength="135" x="340" y="77.0339">_portServerTest : int</text><rect fill="none" height="6" style="stroke:#C82930;stroke-width:1.0;" width="6" x="328" y="89.1698"/><text fill="#000000" font-family="sans-serif" font-size="14" lengthAdjust="spacing" textLength="133" x="340" y="96.1018">_attackSamples : int</text><line style="stroke:#181818;stroke-width:0.5;" x1="321" x2="1011" y1="104.2038" y2="104.2038"/><ellipse cx="331" cy="119.2377" fill="#84BE84" rx="3" ry="3" style="stroke:#038048;stroke-width:1.0;"/><text fill="#000000" font-family="sans-serif" font-size="14" lengthAdjust="spacing" textLength="63" x="340" y="123.1697">Attacker()</text><ellipse cx="331" cy="138.3056" fill="#84BE84" rx="3" ry="3" style="stroke:#038048;stroke-width:1.0;"/><text fill="#000000" font-family="sans-serif" font-size="14" lengthAdjust="spacing" textLength="71" x="340" y="142.2376">~Attacker()</text><ellipse cx="331" cy="157.3735" fill="#84BE84" rx="3" ry="3" style="stroke:#038048;stroke-width:1.0;"/><text fill="#000000" font-family="sans-serif" font-size="14" lengthAdjust="spacing" textLength="459" x="340" y="161.3055">breakHmacSHA1(fileName : std::string) : std::tuple&lt;bool, std::string&gt;</text><rect fill="#F24D5C" height="6" style="stroke:#C82930;stroke-width:1.0;" width="6" x="328" y="173.4415"/><text fill="#000000" font-family="sans-serif" font-size="14" lengthAdjust="spacing" textLength="666" x="340" y="180.3734">sendRequest(signature : std::string, fileName : std::string) : std::tuple&lt;bool, cpr::Response&gt; {const}</text><rect fill="#F24D5C" height="6" style="stroke:#C82930;stroke-width:1.0;" width="6" x="328" y="192.5094"/><text fill="#000000" font-family="sans-serif" font-size="14" lengthAdjust="spacing" text-decoration="underline" textLength="358" x="340" y="199.4414">printServerResponse(response : cpr::Response) : void</text></g><!--link Server to HMAC--><g id="link_Server_HMAC"><path codeLine="19" d="M666,583.2 C666,617.94 666,648.12 666,679.96 " fill="none" id="Server-to-HMAC" style="stroke:#181818;stroke-width:1.0;"/><polygon fill="#181818" points="666,685.96,670,676.96,666,680.96,662,676.96,666,685.96" style="stroke:#181818;stroke-width:1.0;"/><text fill="#000000" font-family="sans-serif" font-size="13" lengthAdjust="spacing" textLength="31" x="667" y="627.897">has a</text></g><!--reverse link SHA to SHA1--><g id="link_SHA_SHA1"><path codeLine="49" d="M336.1955,1133.967 C364.4855,1166.917 389.76,1196.36 426.98,1239.74 " fill="none" id="SHA-backto-SHA1" style="stroke:#181818;stroke-width:1.0;"/><polygon fill="none" points="324.47,1120.31,331.6432,1137.8755,340.7478,1130.0585,324.47,1120.31" style="stroke:#181818;stroke-width:1.0;"/><text fill="#000000" font-family="sans-serif" font-size="13" lengthAdjust="spacing" textLength="45" x="394" y="1205.897">inherits</text></g><!--reverse link HMAC to HMAC_SHA1--><g id="link_HMAC_HMAC_SHA1"><path codeLine="74" d="M773.4217,893.9131 C798.4917,919.4431 812.99,934.21 838.22,959.91 " fill="none" id="HMAC-backto-HMAC_SHA1" style="stroke:#181818;stroke-width:1.0;"/><polygon fill="none" points="760.81,881.07,769.1407,898.117,777.7027,889.7092,760.81,881.07" style="stroke:#181818;stroke-width:1.0;"/><text fill="#000000" font-family="sans-serif" font-size="13" lengthAdjust="spacing" textLength="45" x="802" y="925.897">inherits</text></g><!--link HMAC to SHA--><g id="link_HMAC_SHA"><path codeLine="75" d="M528.35,881.07 C471.43,921 412.2017,962.544 362.5717,997.364 " fill="none" id="HMAC-to-SHA" style="stroke:#181818;stroke-width:1.0;"/><polygon fill="#181818" points="357.66,1000.81,367.3249,998.9154,361.7531,997.9383,362.7302,992.3665,357.66,1000.81" style="stroke:#181818;stroke-width:1.0;"/><text fill="#000000" font-family="sans-serif" font-size="13" lengthAdjust="spacing" textLength="31" x="482" y="925.897">has a</text></g><!--link Attacker to Server--><g id="link_Attacker_Server"><path codeLine="90" d="M666,208.37 C666,233.23 666,254.39 666,281 " fill="none" id="Attacker-to-Server" style="stroke:#181818;stroke-width:1.0;"/><polygon fill="#181818" points="666,287,670,278,666,282,662,278,666,287" style="stroke:#181818;stroke-width:1.0;"/><text fill="#000000" font-family="sans-serif" font-size="13" lengthAdjust="spacing" textLength="131" x="667" y="252.897">&#171;uses HTTP requests&#187;</text></g><!--SRC=[nLPRRzem57xFhx3e2zN8D6YrXoYAnAf9J5kt2gg-HiPnYqM8FTjXeXtzxJlEZJWXNAHkuoNOv-BZyvrp_94OAuLcLAwfH2yEWf-BmYNT55iUKZhol3Kbcai_JHHxIcY4o0BBeDJ6Ge0UaVoNvytOIiHqB4GfNAmmARqeiA9HABJqRpStSYCq_yRc4ikDvqrknpULHy6blfCyIebcF05pbkYwx9ugNUncs- -A6_GlY-LhOotJfDm1kpLdKLDWNDf25ocgKp7bgQQgAPASwyz993Z4q3A3766TIlf09Nja19jBT2cpH542khFIw8Ql1AIflnuUJFu0hKS75Sfpq8lI407PEbl7AL1rtG0r47Xl002JtW8hX7kEa-0LLG8JsjGioeJabJCP8z_7SwKb9Ze82c41ocHS852YqjY0inPzbeXKFnozov4wt3fsLCDQ950rYZtJ7wc6aoPmPbMGi1lgkbuUZC1H1DwF7bhM-0TGJG7Sgv7jRJ7i4eow15TTWkiEmIek11-lmw8TgkmFM-aV_gtyd-TmWAoSmN9eBqVsyifUNbjBg5E5dw23dgc5w-Mf0BA4QOPZzfnrQjzOVx7kiFDNTUvPbczutJr124bXM1B80akUJeMpvQDoi4SQqqSzvJ16O2pXEALMU7EcLJwCBvibMZHbDYH-ksxUbp1ZMBA0qQXLhzwqsG3gc2KNAEJGbCP__IPrEJiYXyVdb7S8GWpgNMIYihkejMEUk3uycKSglYZJjsYq2qJWbO1twLFCoT8KVlILRaw8OLxgetCxPTk4AcmFsGxlTHM3uiF9WvMTfGtNp_9nsA21RTWUa_kt_ptAxdz3EMz5qx4xfAsshPGCap3jlICEu28lah7Mc2phjD9Gjvo1729tEpvcot3cRuODmLGs-okFsl6_rivSKhoS08OPi8yifj-1u5G9qX96NvKWe7qnzUUSnuEwFAXuOH9DwS_KKCQAxDck1kYC8uYGdZS5jiM13CBO8_3LMwUSp73HF2UbIbyMVmpjhjlkvNmL3XbM9Qtl-Nwg88-J-_ix9FFBg23eENy0]--></g></svg>