<?xml version="1.0" encoding="us-ascii" standalone="no"?><svg xmlns="http://www.w3.org/2000/svg" xmlns:xlink="http://www.w3.org/1999/xlink" contentStyleType="text/css" height="1108px" preserveAspectRatio="none" style="width:821px;height:1108px;background:#FFFFFF;" version="1.1" viewBox="0 0 821 1108" width="821px" zoomAndPan="magnify"><defs/><g><rect fill="#FFFFFF" height="890.2384" style="stroke:#181818;stroke-width:1.0;" width="10" x="105.5" y="125.7739"/><rect fill="#FFFFFF" height="42.706" style="stroke:#181818;stroke-width:1.0;" width="10" x="110.5" y="170.4799"/><rect fill="#FFFFFF" height="42.706" style="stroke:#181818;stroke-width:1.0;" width="10" x="110.5" y="323.304"/><rect fill="#FFFFFF" height="587.2963" style="stroke:#181818;stroke-width:1.0;" width="10" x="110.5" y="412.716"/><rect fill="#FFFFFF" height="42.706" style="stroke:#181818;stroke-width:1.0;" width="10" x="115.5" y="520.8341"/><rect fill="#FFFFFF" height="31.706" style="stroke:#181818;stroke-width:1.0;" width="10" x="409.5" y="251.892"/><rect fill="#FFFFFF" height="31.706" style="stroke:#181818;stroke-width:1.0;" width="10" x="409.5" y="449.4221"/><rect fill="#FFFFFF" height="184.5301" style="stroke:#181818;stroke-width:1.0;" width="10" x="541.5" y="692.3642"/><rect fill="#FFFFFF" height="31.706" style="stroke:#181818;stroke-width:1.0;" width="10" x="775.5" y="628.9521"/><rect fill="#FFFFFF" height="31.706" style="stroke:#181818;stroke-width:1.0;" width="10" x="775.5" y="768.7762"/><rect fill="none" height="377.7662" style="stroke:#000000;stroke-width:1.5;" width="759" x="56" y="585.5401"/><rect fill="none" height="64.412" style="stroke:#000000;stroke-width:1.5;" width="232.5" x="66" y="891.8943"/><line style="stroke:#181818;stroke-width:0.5;stroke-dasharray:5.0,5.0;" x1="35" x2="35" y1="84.0679" y2="1025.0123"/><line style="stroke:#181818;stroke-width:0.5;stroke-dasharray:5.0,5.0;" x1="110" x2="110" y1="84.0679" y2="1025.0123"/><line style="stroke:#181818;stroke-width:0.5;stroke-dasharray:5.0,5.0;" x1="414" x2="414" y1="84.0679" y2="1025.0123"/><line style="stroke:#181818;stroke-width:0.5;stroke-dasharray:5.0,5.0;" x1="546" x2="546" y1="84.0679" y2="1025.0123"/><line style="stroke:#181818;stroke-width:0.5;stroke-dasharray:5.0,5.0;" x1="780" x2="780" y1="84.0679" y2="1025.0123"/><text fill="#000000" font-family="sans-serif" font-size="14" lengthAdjust="spacing" textLength="55" x="5" y="79.9659">Attacker</text><ellipse cx="35.5" cy="13.5" fill="#E2E2F0" rx="8" ry="8" style="stroke:#181818;stroke-width:0.5;"/><path d="M35.5,21.5 L35.5,48.5 M22.5,29.5 L48.5,29.5 M35.5,48.5 L22.5,63.5 M35.5,48.5 L48.5,63.5 " fill="none" style="stroke:#181818;stroke-width:0.5;"/><text fill="#000000" font-family="sans-serif" font-size="14" lengthAdjust="spacing" textLength="55" x="5" y="1038.9782">Attacker</text><ellipse cx="35.5" cy="1051.5802" fill="#E2E2F0" rx="8" ry="8" style="stroke:#181818;stroke-width:0.5;"/><path d="M35.5,1059.5802 L35.5,1086.5802 M22.5,1067.5802 L48.5,1067.5802 M35.5,1086.5802 L22.5,1101.5802 M35.5,1086.5802 L48.5,1101.5802 " fill="none" style="stroke:#181818;stroke-width:0.5;"/><rect fill="#E2E2F0" height="33.0679" rx="2.5" ry="2.5" style="stroke:#181818;stroke-width:0.5;" width="69" x="76" y="50"/><text fill="#000000" font-family="sans-serif" font-size="14" lengthAdjust="spacing" textLength="55" x="83" y="71.9659">Attacker</text><rect fill="#E2E2F0" height="33.0679" rx="2.5" ry="2.5" style="stroke:#181818;stroke-width:0.5;" width="69" x="76" y="1024.0123"/><text fill="#000000" font-family="sans-serif" font-size="14" lengthAdjust="spacing" textLength="55" x="83" y="1045.9782">Attacker</text><rect fill="#E2E2F0" height="33.0679" rx="2.5" ry="2.5" style="stroke:#181818;stroke-width:0.5;" width="187" x="321" y="50"/><text fill="#000000" font-family="sans-serif" font-size="14" lengthAdjust="spacing" textLength="173" x="328" y="71.9659">MessageExtractionFacility</text><rect fill="#E2E2F0" height="33.0679" rx="2.5" ry="2.5" style="stroke:#181818;stroke-width:0.5;" width="187" x="321" y="1024.0123"/><text fill="#000000" font-family="sans-serif" font-size="14" lengthAdjust="spacing" textLength="173" x="328" y="1045.9782">MessageExtractionFacility</text><rect fill="#E2E2F0" height="33.0679" rx="2.5" ry="2.5" style="stroke:#181818;stroke-width:0.5;" width="57" x="518" y="50"/><text fill="#000000" font-family="sans-serif" font-size="14" lengthAdjust="spacing" textLength="43" x="525" y="71.9659">Server</text><rect fill="#E2E2F0" height="33.0679" rx="2.5" ry="2.5" style="stroke:#181818;stroke-width:0.5;" width="57" x="518" y="1024.0123"/><text fill="#000000" font-family="sans-serif" font-size="14" lengthAdjust="spacing" textLength="43" x="525" y="1045.9782">Server</text><rect fill="#E2E2F0" height="33.0679" rx="2.5" ry="2.5" style="stroke:#181818;stroke-width:0.5;" width="49" x="756" y="50"/><text fill="#000000" font-family="sans-serif" font-size="14" lengthAdjust="spacing" textLength="35" x="763" y="71.9659">SHA1</text><rect fill="#E2E2F0" height="33.0679" rx="2.5" ry="2.5" style="stroke:#181818;stroke-width:0.5;" width="49" x="756" y="1024.0123"/><text fill="#000000" font-family="sans-serif" font-size="14" lengthAdjust="spacing" textLength="35" x="763" y="1045.9782">SHA1</text><rect fill="#FFFFFF" height="890.2384" style="stroke:#181818;stroke-width:1.0;" width="10" x="105.5" y="125.7739"/><rect fill="#FFFFFF" height="42.706" style="stroke:#181818;stroke-width:1.0;" width="10" x="110.5" y="170.4799"/><rect fill="#FFFFFF" height="42.706" style="stroke:#181818;stroke-width:1.0;" width="10" x="110.5" y="323.304"/><rect fill="#FFFFFF" height="587.2963" style="stroke:#181818;stroke-width:1.0;" width="10" x="110.5" y="412.716"/><rect fill="#FFFFFF" height="42.706" style="stroke:#181818;stroke-width:1.0;" width="10" x="115.5" y="520.8341"/><rect fill="#FFFFFF" height="31.706" style="stroke:#181818;stroke-width:1.0;" width="10" x="409.5" y="251.892"/><rect fill="#FFFFFF" height="31.706" style="stroke:#181818;stroke-width:1.0;" width="10" x="409.5" y="449.4221"/><rect fill="#FFFFFF" height="184.5301" style="stroke:#181818;stroke-width:1.0;" width="10" x="541.5" y="692.3642"/><rect fill="#FFFFFF" height="31.706" style="stroke:#181818;stroke-width:1.0;" width="10" x="775.5" y="628.9521"/><rect fill="#FFFFFF" height="31.706" style="stroke:#181818;stroke-width:1.0;" width="10" x="775.5" y="768.7762"/><line style="stroke:#181818;stroke-width:1.0;" x1="110.5" x2="157.5" y1="112.7739" y2="112.7739"/><line style="stroke:#181818;stroke-width:1.0;" x1="157.5" x2="157.5" y1="112.7739" y2="125.7739"/><line style="stroke:#181818;stroke-width:1.0;" x1="116.5" x2="157.5" y1="125.7739" y2="125.7739"/><polygon fill="#181818" points="126.5,121.7739,116.5,125.7739,126.5,129.7739,122.5,125.7739" style="stroke:#181818;stroke-width:1.0;"/><text fill="#000000" font-family="sans-serif" font-size="13" lengthAdjust="spacing" textLength="189" x="122.5" y="106.9649">lengthExtensionAttackAtSHA1()</text><line style="stroke:#181818;stroke-width:1.0;" x1="115.5" x2="162.5" y1="157.4799" y2="157.4799"/><line style="stroke:#181818;stroke-width:1.0;" x1="162.5" x2="162.5" y1="157.4799" y2="170.4799"/><line style="stroke:#181818;stroke-width:1.0;" x1="121.5" x2="162.5" y1="170.4799" y2="170.4799"/><polygon fill="#181818" points="131.5,166.4799,121.5,170.4799,131.5,174.4799,127.5,170.4799" style="stroke:#181818;stroke-width:1.0;"/><text fill="#000000" font-family="sans-serif" font-size="13" lengthAdjust="spacing" textLength="103" x="127.5" y="151.6709">extractMessage()</text><line style="stroke:#181818;stroke-width:1.0;stroke-dasharray:2.0,2.0;" x1="120.5" x2="162.5" y1="212.186" y2="212.186"/><line style="stroke:#181818;stroke-width:1.0;stroke-dasharray:2.0,2.0;" x1="162.5" x2="162.5" y1="212.186" y2="225.186"/><line style="stroke:#181818;stroke-width:1.0;stroke-dasharray:2.0,2.0;" x1="115.5" x2="162.5" y1="225.186" y2="225.186"/><polygon fill="#181818" points="125.5,221.186,115.5,225.186,125.5,229.186,121.5,225.186" style="stroke:#181818;stroke-width:1.0;"/><text fill="#000000" font-family="sans-serif" font-size="13" lengthAdjust="spacing" textLength="94" x="127.5" y="206.377">return message</text><polygon fill="#181818" points="397.5,247.892,407.5,251.892,397.5,255.892,401.5,251.892" style="stroke:#181818;stroke-width:1.0;"/><line style="stroke:#181818;stroke-width:1.0;" x1="115.5" x2="403.5" y1="251.892" y2="251.892"/><text fill="#000000" font-family="sans-serif" font-size="13" lengthAdjust="spacing" textLength="223" x="122.5" y="246.083">parseMessage(message, _debugFlag)</text><polygon fill="#181818" points="126.5,279.598,116.5,283.598,126.5,287.598,122.5,283.598" style="stroke:#181818;stroke-width:1.0;"/><line style="stroke:#181818;stroke-width:1.0;stroke-dasharray:2.0,2.0;" x1="120.5" x2="413.5" y1="283.598" y2="283.598"/><text fill="#000000" font-family="sans-serif" font-size="13" lengthAdjust="spacing" textLength="94" x="132.5" y="277.789">MessageParsed</text><line style="stroke:#181818;stroke-width:1.0;" x1="115.5" x2="162.5" y1="310.304" y2="310.304"/><line style="stroke:#181818;stroke-width:1.0;" x1="162.5" x2="162.5" y1="310.304" y2="323.304"/><line style="stroke:#181818;stroke-width:1.0;" x1="121.5" x2="162.5" y1="323.304" y2="323.304"/><polygon fill="#181818" points="131.5,319.304,121.5,323.304,131.5,327.304,127.5,323.304" style="stroke:#181818;stroke-width:1.0;"/><text fill="#000000" font-family="sans-serif" font-size="13" lengthAdjust="spacing" textLength="246" x="127.5" y="304.495">computeSHA1padding(msgParsed._msg)</text><line style="stroke:#181818;stroke-width:1.0;stroke-dasharray:2.0,2.0;" x1="120.5" x2="162.5" y1="365.01" y2="365.01"/><line style="stroke:#181818;stroke-width:1.0;stroke-dasharray:2.0,2.0;" x1="162.5" x2="162.5" y1="365.01" y2="378.01"/><line style="stroke:#181818;stroke-width:1.0;stroke-dasharray:2.0,2.0;" x1="115.5" x2="162.5" y1="378.01" y2="378.01"/><polygon fill="#181818" points="125.5,374.01,115.5,378.01,125.5,382.01,121.5,378.01" style="stroke:#181818;stroke-width:1.0;"/><text fill="#000000" font-family="sans-serif" font-size="13" lengthAdjust="spacing" textLength="143" x="127.5" y="359.201">return padded message</text><line style="stroke:#181818;stroke-width:1.0;" x1="115.5" x2="162.5" y1="399.716" y2="399.716"/><line style="stroke:#181818;stroke-width:1.0;" x1="162.5" x2="162.5" y1="399.716" y2="412.716"/><line style="stroke:#181818;stroke-width:1.0;" x1="121.5" x2="162.5" y1="412.716" y2="412.716"/><polygon fill="#181818" points="131.5,408.716,121.5,412.716,131.5,416.716,127.5,412.716" style="stroke:#181818;stroke-width:1.0;"/><text fill="#000000" font-family="sans-serif" font-size="13" lengthAdjust="spacing" textLength="191" x="127.5" y="393.907">tamperMessageTry(msgParsed)</text><polygon fill="#181818" points="397.5,445.4221,407.5,449.4221,397.5,453.4221,401.5,449.4221" style="stroke:#181818;stroke-width:1.0;"/><line style="stroke:#181818;stroke-width:1.0;" x1="120.5" x2="403.5" y1="449.4221" y2="449.4221"/><text fill="#000000" font-family="sans-serif" font-size="13" lengthAdjust="spacing" textLength="179" x="127.5" y="443.6131">hexToBytes(msgParsed._mac)</text><polygon fill="#181818" points="131.5,477.1281,121.5,481.1281,131.5,485.1281,127.5,481.1281" style="stroke:#181818;stroke-width:1.0;"/><line style="stroke:#181818;stroke-width:1.0;stroke-dasharray:2.0,2.0;" x1="125.5" x2="413.5" y1="481.1281" y2="481.1281"/><text fill="#000000" font-family="sans-serif" font-size="13" lengthAdjust="spacing" textLength="96" x="137.5" y="475.3191">macByteFormat</text><line style="stroke:#181818;stroke-width:1.0;" x1="120.5" x2="167.5" y1="507.8341" y2="507.8341"/><line style="stroke:#181818;stroke-width:1.0;" x1="167.5" x2="167.5" y1="507.8341" y2="520.8341"/><line style="stroke:#181818;stroke-width:1.0;" x1="126.5" x2="167.5" y1="520.8341" y2="520.8341"/><polygon fill="#181818" points="136.5,516.8341,126.5,520.8341,136.5,524.8341,132.5,520.8341" style="stroke:#181818;stroke-width:1.0;"/><text fill="#000000" font-family="sans-serif" font-size="13" lengthAdjust="spacing" textLength="275" x="132.5" y="502.0251">extractionSHA1InternalState(macByteFormat)</text><line style="stroke:#181818;stroke-width:1.0;stroke-dasharray:2.0,2.0;" x1="125.5" x2="167.5" y1="562.5401" y2="562.5401"/><line style="stroke:#181818;stroke-width:1.0;stroke-dasharray:2.0,2.0;" x1="167.5" x2="167.5" y1="562.5401" y2="575.5401"/><line style="stroke:#181818;stroke-width:1.0;stroke-dasharray:2.0,2.0;" x1="120.5" x2="167.5" y1="575.5401" y2="575.5401"/><polygon fill="#181818" points="130.5,571.5401,120.5,575.5401,130.5,579.5401,126.5,575.5401" style="stroke:#181818;stroke-width:1.0;"/><text fill="#000000" font-family="sans-serif" font-size="13" lengthAdjust="spacing" textLength="147" x="132.5" y="556.7311">return sha1InternalState</text><path d="M56,585.5401 L129,585.5401 L129,595.2461 L119,605.2461 L56,605.2461 L56,585.5401 " fill="#EEEEEE" style="stroke:#000000;stroke-width:1.5;"/><rect fill="none" height="377.7662" style="stroke:#000000;stroke-width:1.5;" width="759" x="56" y="585.5401"/><text fill="#000000" font-family="sans-serif" font-size="13" font-weight="bold" lengthAdjust="spacing" textLength="28" x="71" y="600.4371">loop</text><text fill="#000000" font-family="sans-serif" font-size="11" font-weight="bold" lengthAdjust="spacing" textLength="168" x="144" y="599.299">[keyLength = 1 to maxKeySize]</text><polygon fill="#181818" points="763.5,624.9521,773.5,628.9521,763.5,632.9521,767.5,628.9521" style="stroke:#181818;stroke-width:1.0;"/><line style="stroke:#181818;stroke-width:1.0;" x1="120.5" x2="769.5" y1="628.9521" y2="628.9521"/><text fill="#000000" font-family="sans-serif" font-size="13" lengthAdjust="spacing" textLength="358" x="127.5" y="623.1431">hash(appendMessageGoalV, h0, h1, h2, h3, h4, messageSize)</text><polygon fill="#181818" points="131.5,656.6582,121.5,660.6582,131.5,664.6582,127.5,660.6582" style="stroke:#181818;stroke-width:1.0;"/><line style="stroke:#181818;stroke-width:1.0;stroke-dasharray:2.0,2.0;" x1="125.5" x2="779.5" y1="660.6582" y2="660.6582"/><text fill="#000000" font-family="sans-serif" font-size="13" lengthAdjust="spacing" textLength="50" x="137.5" y="654.8492">newMac</text><polygon fill="#181818" points="529.5,688.3642,539.5,692.3642,529.5,696.3642,533.5,692.3642" style="stroke:#181818;stroke-width:1.0;"/><line style="stroke:#181818;stroke-width:1.0;" x1="120.5" x2="535.5" y1="692.3642" y2="692.3642"/><text fill="#000000" font-family="sans-serif" font-size="13" lengthAdjust="spacing" textLength="214" x="127.5" y="686.5552">validateMac(newMessage, newMac)</text><line style="stroke:#181818;stroke-width:1.0;" x1="551.5" x2="593.5" y1="724.0702" y2="724.0702"/><line style="stroke:#181818;stroke-width:1.0;" x1="593.5" x2="593.5" y1="724.0702" y2="737.0702"/><line style="stroke:#181818;stroke-width:1.0;" x1="552.5" x2="593.5" y1="737.0702" y2="737.0702"/><polygon fill="#181818" points="562.5,733.0702,552.5,737.0702,562.5,741.0702,558.5,737.0702" style="stroke:#181818;stroke-width:1.0;"/><text fill="#000000" font-family="sans-serif" font-size="13" lengthAdjust="spacing" textLength="210" x="558.5" y="718.2612">Prepend server key to the message</text><polygon fill="#181818" points="763.5,764.7762,773.5,768.7762,763.5,772.7762,767.5,768.7762" style="stroke:#181818;stroke-width:1.0;"/><line style="stroke:#181818;stroke-width:1.0;" x1="551.5" x2="769.5" y1="768.7762" y2="768.7762"/><text fill="#000000" font-family="sans-serif" font-size="13" lengthAdjust="spacing" textLength="156" x="558.5" y="762.9672">hash(key || newMessage)</text><polygon fill="#181818" points="562.5,796.4822,552.5,800.4822,562.5,804.4822,558.5,800.4822" style="stroke:#181818;stroke-width:1.0;"/><line style="stroke:#181818;stroke-width:1.0;stroke-dasharray:2.0,2.0;" x1="556.5" x2="779.5" y1="800.4822" y2="800.4822"/><text fill="#000000" font-family="sans-serif" font-size="13" lengthAdjust="spacing" textLength="67" x="568.5" y="794.6732">hashServer</text><line style="stroke:#181818;stroke-width:1.0;" x1="551.5" x2="593.5" y1="832.1882" y2="832.1882"/><line style="stroke:#181818;stroke-width:1.0;" x1="593.5" x2="593.5" y1="832.1882" y2="845.1882"/><line style="stroke:#181818;stroke-width:1.0;" x1="552.5" x2="593.5" y1="845.1882" y2="845.1882"/><polygon fill="#181818" points="562.5,841.1882,552.5,845.1882,562.5,849.1882,558.5,845.1882" style="stroke:#181818;stroke-width:1.0;"/><text fill="#000000" font-family="sans-serif" font-size="13" lengthAdjust="spacing" textLength="186" x="558.5" y="826.3792">Check if hashServer == newMac</text><polygon fill="#181818" points="131.5,872.8943,121.5,876.8943,131.5,880.8943,127.5,876.8943" style="stroke:#181818;stroke-width:1.0;"/><line style="stroke:#181818;stroke-width:1.0;stroke-dasharray:2.0,2.0;" x1="125.5" x2="545.5" y1="876.8943" y2="876.8943"/><text fill="#000000" font-family="sans-serif" font-size="13" lengthAdjust="spacing" textLength="70" x="137.5" y="871.0853">serverReply</text><path d="M66,891.8943 L129,891.8943 L129,901.6003 L119,911.6003 L66,911.6003 L66,891.8943 " fill="#EEEEEE" style="stroke:#000000;stroke-width:1.5;"/><rect fill="none" height="64.412" style="stroke:#000000;stroke-width:1.5;" width="232.5" x="66" y="891.8943"/><text fill="#000000" font-family="sans-serif" font-size="13" font-weight="bold" lengthAdjust="spacing" textLength="18" x="81" y="906.7913">alt</text><text fill="#000000" font-family="sans-serif" font-size="11" font-weight="bold" lengthAdjust="spacing" textLength="111" x="144" y="905.6532">[serverReply is true]</text><line style="stroke:#181818;stroke-width:1.0;" x1="120.5" x2="162.5" y1="935.3063" y2="935.3063"/><line style="stroke:#181818;stroke-width:1.0;" x1="162.5" x2="162.5" y1="935.3063" y2="948.3063"/><line style="stroke:#181818;stroke-width:1.0;" x1="121.5" x2="162.5" y1="948.3063" y2="948.3063"/><polygon fill="#181818" points="131.5,944.3063,121.5,948.3063,131.5,952.3063,127.5,948.3063" style="stroke:#181818;stroke-width:1.0;"/><text fill="#000000" font-family="sans-serif" font-size="13" lengthAdjust="spacing" textLength="159" x="127.5" y="929.4973">break loop and return true</text><line style="stroke:#181818;stroke-width:1.0;stroke-dasharray:2.0,2.0;" x1="120.5" x2="162.5" y1="999.0123" y2="999.0123"/><line style="stroke:#181818;stroke-width:1.0;stroke-dasharray:2.0,2.0;" x1="162.5" x2="162.5" y1="999.0123" y2="1012.0123"/><line style="stroke:#181818;stroke-width:1.0;stroke-dasharray:2.0,2.0;" x1="115.5" x2="162.5" y1="1012.0123" y2="1012.0123"/><polygon fill="#181818" points="125.5,1008.0123,115.5,1012.0123,125.5,1016.0123,121.5,1012.0123" style="stroke:#181818;stroke-width:1.0;"/><text fill="#000000" font-family="sans-serif" font-size="13" lengthAdjust="spacing" textLength="211" x="127.5" y="993.2033">return false (if no keyLength found)</text><!--SRC=[XLFHQjj047pNLonvKi0jTTkdW0jAYDlI6a8LyXesqbeIbk_4tTgrIZw-UxgJBDcDQrWGTpEpC-izp5WRI9Wnsv29eWODLrdLe6Auwe-l02qaqxiLMOi5tH_OOCQLLalCghhYjWElxfTJU4fc7uJIavjloToVoqSK9V3k2oHm0pMfWalH9sL5tdj9sA7YwyZrt2EJs3fIo9i9rgOe0GMK8TuP1LkFYd8wqnBtWXENbdgjW9x1Squlks9POp6ITt4TgMyHM0zE8HztSC2ZtqnlcnsJYzHWdbUgYBUsyAptp_9vEO7ZK7ufY0CpRXiomT6ZQOyj_Z55dxoamwE-RPdin0zc5oBBhMCijTaYlnsPXdrngRyh9gEmJbcGyKJYSdHRufHyahxMke4DjJ-x9O85p86rU3pye3Qj_b04ykjCEHikCjeongOXbOTHVTLOFysW_20rb_eezKdgywoVk1EwxfI6rjqEkvDEjZUjwFSAi-vyP7F0Zim8U8zrbSkzC697x1VFYvpsyyqwxWqy6781m7QFpULtgRcatl7GBUsZX-GE-leAntx_pPLwfd_NRqRhdTsLb6sWMeyui5Y4J8EbC2vl_nSrTNicV1mOrZn6GcM1pSx_iyD0dToB8Tn0jn4emmaRD61bO96hyoLROsq9Od6jz6YPrdgdvErC5kul]--></g></svg>