<?xml version="1.0" encoding="us-ascii" standalone="no"?><svg xmlns="http://www.w3.org/2000/svg" xmlns:xlink="http://www.w3.org/1999/xlink" contentStyleType="text/css" height="1278px" preserveAspectRatio="none" style="width:1423px;height:1278px;background:#FFFFFF;" version="1.1" viewBox="0 0 1423 1278" width="1423px" zoomAndPan="magnify"><defs/><g><!--cluster MessageFormat--><g id="cluster_MessageFormat"><path d="M916.5,67 L1028.5,67 A3.75,3.75 0 0 1 1031,69.5 L1038,92.0679 L1085.5,92.0679 A2.5,2.5 0 0 1 1088,94.5679 L1088,237.5 A2.5,2.5 0 0 1 1085.5,240 L916.5,240 A2.5,2.5 0 0 1 914,237.5 L914,69.5 A2.5,2.5 0 0 1 916.5,67 " fill="none" style="stroke:#000000;stroke-width:1.5;"/><line style="stroke:#000000;stroke-width:1.5;" x1="914" x2="1038" y1="92.0679" y2="92.0679"/><text fill="#000000" font-family="sans-serif" font-size="14" font-weight="bold" lengthAdjust="spacing" textLength="111" x="918" y="83.9659">MessageFormat</text></g><!--cluster SHA1InternalState--><g id="cluster_SHA1InternalState"><path d="M1114.5,86.5 L1243.5,86.5 A3.75,3.75 0 0 1 1246,89 L1253,111.5679 L1413.5,111.5679 A2.5,2.5 0 0 1 1416,114.0679 L1416,218 A2.5,2.5 0 0 1 1413.5,220.5 L1114.5,220.5 A2.5,2.5 0 0 1 1112,218 L1112,89 A2.5,2.5 0 0 1 1114.5,86.5 " fill="none" style="stroke:#000000;stroke-width:1.5;"/><line style="stroke:#000000;stroke-width:1.5;" x1="1112" x2="1253" y1="111.5679" y2="111.5679"/><text fill="#000000" font-family="sans-serif" font-size="14" font-weight="bold" lengthAdjust="spacing" textLength="128" x="1116" y="103.4659">SHA1InternalState</text></g><!--cluster MyCryptoLibrary--><g id="cluster_MyCryptoLibrary"><path d="M8.5,647 L126.5,647 A3.75,3.75 0 0 1 129,649.5 L136,672.0679 L1163.5,672.0679 A2.5,2.5 0 0 1 1166,674.5679 L1166,1268.5 A2.5,2.5 0 0 1 1163.5,1271 L8.5,1271 A2.5,2.5 0 0 1 6,1268.5 L6,649.5 A2.5,2.5 0 0 1 8.5,647 " fill="none" style="stroke:#000000;stroke-width:1.5;"/><line style="stroke:#000000;stroke-width:1.5;" x1="6" x2="136" y1="672.0679" y2="672.0679"/><text fill="#000000" font-family="sans-serif" font-size="14" font-weight="bold" lengthAdjust="spacing" textLength="117" x="10" y="663.9659">MyCryptoLibrary</text></g><!--class MessageFormat--><g id="elem_MessageFormat"><rect codeLine="3" fill="#F1F1F1" height="118.6158" id="MessageFormat" rx="2.5" ry="2.5" style="stroke:#181818;stroke-width:0.5;" width="142" x="930" y="105"/><ellipse cx="946.35" cy="127.706" fill="#ADD1B2" rx="11" ry="11" style="stroke:#181818;stroke-width:1.0;"/><path d="M949.3188,133.3466 Q948.7406,133.6435 948.1,133.7841 Q947.4594,133.9404 946.7563,133.9404 Q944.2563,133.9404 942.9281,132.2998 Q941.6156,130.6435 941.6156,127.5185 Q941.6156,124.3935 942.9281,122.7373 Q944.2563,121.081 946.7563,121.081 Q947.4594,121.081 948.1,121.2373 Q948.7563,121.3935 949.3188,121.6904 L949.3188,124.4091 Q948.6938,123.831 948.1,123.5654 Q947.5063,123.2841 946.8813,123.2841 Q945.5375,123.2841 944.85,124.3623 Q944.1625,125.4248 944.1625,127.5185 Q944.1625,129.6123 944.85,130.6904 Q945.5375,131.7529 946.8813,131.7529 Q947.5063,131.7529 948.1,131.4873 Q948.6938,131.206 949.3188,130.6279 L949.3188,133.3466 Z " fill="#000000"/><text fill="#000000" font-family="sans-serif" font-size="12" font-style="italic" lengthAdjust="spacing" textLength="42" x="993.15" y="122.8281">&#171;struct&#187;</text><text fill="#000000" font-family="sans-serif" font-size="14" lengthAdjust="spacing" textLength="107" x="960.65" y="141.31">MessageFormat</text><line style="stroke:#181818;stroke-width:0.5;" x1="931" x2="1071" y1="150.412" y2="150.412"/><ellipse cx="941" cy="165.446" fill="none" rx="3" ry="3" style="stroke:#038048;stroke-width:1.0;"/><text fill="#000000" font-family="sans-serif" font-size="14" lengthAdjust="spacing" textLength="106" x="950" y="169.378">_url : std::string</text><ellipse cx="941" cy="184.5139" fill="none" rx="3" ry="3" style="stroke:#038048;stroke-width:1.0;"/><text fill="#000000" font-family="sans-serif" font-size="14" lengthAdjust="spacing" textLength="116" x="950" y="188.4459">_msg : std::string</text><ellipse cx="941" cy="203.5818" fill="none" rx="3" ry="3" style="stroke:#038048;stroke-width:1.0;"/><text fill="#000000" font-family="sans-serif" font-size="14" lengthAdjust="spacing" textLength="115" x="950" y="207.5138">_mac : std::string</text><line style="stroke:#181818;stroke-width:0.5;" x1="931" x2="1071" y1="215.6158" y2="215.6158"/></g><!--class SHA1InternalState--><g id="elem_SHA1InternalState"><rect codeLine="11" fill="#F1F1F1" height="80.4799" id="SHA1InternalState" rx="2.5" ry="2.5" style="stroke:#181818;stroke-width:0.5;" width="271" x="1128.5" y="124.5"/><ellipse cx="1198.25" cy="147.206" fill="#ADD1B2" rx="11" ry="11" style="stroke:#181818;stroke-width:1.0;"/><path d="M1201.2188,152.8466 Q1200.6406,153.1435 1200,153.2841 Q1199.3594,153.4404 1198.6563,153.4404 Q1196.1563,153.4404 1194.8281,151.7998 Q1193.5156,150.1435 1193.5156,147.0185 Q1193.5156,143.8935 1194.8281,142.2373 Q1196.1563,140.581 1198.6563,140.581 Q1199.3594,140.581 1200,140.7373 Q1200.6563,140.8935 1201.2188,141.1904 L1201.2188,143.9091 Q1200.5938,143.331 1200,143.0654 Q1199.4063,142.7841 1198.7813,142.7841 Q1197.4375,142.7841 1196.75,143.8623 Q1196.0625,144.9248 1196.0625,147.0185 Q1196.0625,149.1123 1196.75,150.1904 Q1197.4375,151.2529 1198.7813,151.2529 Q1199.4063,151.2529 1200,150.9873 Q1200.5938,150.706 1201.2188,150.1279 L1201.2188,152.8466 Z " fill="#000000"/><text fill="#000000" font-family="sans-serif" font-size="12" font-style="italic" lengthAdjust="spacing" textLength="42" x="1259.25" y="142.3281">&#171;struct&#187;</text><text fill="#000000" font-family="sans-serif" font-size="14" lengthAdjust="spacing" textLength="123" x="1218.75" y="160.81">SHA1InternalState</text><line style="stroke:#181818;stroke-width:0.5;" x1="1129.5" x2="1398.5" y1="169.912" y2="169.912"/><ellipse cx="1139.5" cy="184.946" fill="none" rx="3" ry="3" style="stroke:#038048;stroke-width:1.0;"/><text fill="#000000" font-family="sans-serif" font-size="14" lengthAdjust="spacing" textLength="245" x="1148.5" y="188.878">_internalState : std::vector&lt;uint32_t&gt;</text><line style="stroke:#181818;stroke-width:0.5;" x1="1129.5" x2="1398.5" y1="196.9799" y2="196.9799"/></g><!--class SHA--><g id="elem_SHA"><rect codeLine="28" fill="#F1F1F1" height="118.6158" id="SHA" rx="2.5" ry="2.5" style="stroke:#181818;stroke-width:0.5;" width="503" x="120.5" y="685"/><ellipse cx="341.75" cy="707.706" fill="#ADD1B2" rx="11" ry="11" style="stroke:#181818;stroke-width:1.0;"/><path d="M344.7188,713.3466 Q344.1406,713.6435 343.5,713.7841 Q342.8594,713.9404 342.1563,713.9404 Q339.6563,713.9404 338.3281,712.2998 Q337.0156,710.6435 337.0156,707.5185 Q337.0156,704.3935 338.3281,702.7373 Q339.6563,701.081 342.1563,701.081 Q342.8594,701.081 343.5,701.2373 Q344.1563,701.3935 344.7188,701.6904 L344.7188,704.4091 Q344.0938,703.831 343.5,703.5654 Q342.9063,703.2841 342.2813,703.2841 Q340.9375,703.2841 340.25,704.3623 Q339.5625,705.4248 339.5625,707.5185 Q339.5625,709.6123 340.25,710.6904 Q340.9375,711.7529 342.2813,711.7529 Q342.9063,711.7529 343.5,711.4873 Q344.0938,711.206 344.7188,710.6279 L344.7188,713.3466 Z " fill="#000000"/><text fill="#000000" font-family="sans-serif" font-size="12" font-style="italic" lengthAdjust="spacing" textLength="56" x="360.25" y="702.8281">&#171;abstract&#187;</text><text fill="#000000" font-family="sans-serif" font-size="14" lengthAdjust="spacing" textLength="27" x="374.75" y="721.31">SHA</text><line style="stroke:#181818;stroke-width:0.5;" x1="121.5" x2="622.5" y1="730.412" y2="730.412"/><line style="stroke:#181818;stroke-width:0.5;" x1="121.5" x2="622.5" y1="738.412" y2="738.412"/><ellipse cx="131.5" cy="753.446" fill="#84BE84" rx="3" ry="3" style="stroke:#038048;stroke-width:1.0;"/><text fill="#000000" font-family="sans-serif" font-size="14" lengthAdjust="spacing" textLength="35" x="140.5" y="757.378">SHA()</text><ellipse cx="131.5" cy="772.5139" fill="#84BE84" rx="3" ry="3" style="stroke:#038048;stroke-width:1.0;"/><text fill="#000000" font-family="sans-serif" font-size="14" lengthAdjust="spacing" textLength="43" x="140.5" y="776.4459">~SHA()</text><ellipse cx="131.5" cy="791.5818" fill="#84BE84" rx="3" ry="3" style="stroke:#038048;stroke-width:1.0;"/><text fill="#000000" font-family="sans-serif" font-size="14" lengthAdjust="spacing" textLength="477" x="140.5" y="795.5138">hash(inputV : std::vector&lt;unsigned char&gt;) : std::vector&lt;unsigned char&gt;</text></g><!--class SHA1--><g id="elem_SHA1"><rect codeLine="34" fill="#F1F1F1" height="372.1546" id="SHA1" rx="2.5" ry="2.5" style="stroke:#181818;stroke-width:0.5;" width="1127" x="22.5" y="883"/><ellipse cx="564.25" cy="899" fill="#ADD1B2" rx="11" ry="11" style="stroke:#181818;stroke-width:1.0;"/><path d="M567.2188,904.6406 Q566.6406,904.9375 566,905.0781 Q565.3594,905.2344 564.6563,905.2344 Q562.1563,905.2344 560.8281,903.5938 Q559.5156,901.9375 559.5156,898.8125 Q559.5156,895.6875 560.8281,894.0313 Q562.1563,892.375 564.6563,892.375 Q565.3594,892.375 566,892.5313 Q566.6563,892.6875 567.2188,892.9844 L567.2188,895.7031 Q566.5938,895.125 566,894.8594 Q565.4063,894.5781 564.7813,894.5781 Q563.4375,894.5781 562.75,895.6563 Q562.0625,896.7188 562.0625,898.8125 Q562.0625,900.9063 562.75,901.9844 Q563.4375,903.0469 564.7813,903.0469 Q565.4063,903.0469 566,902.7813 Q566.5938,902.5 567.2188,901.9219 L567.2188,904.6406 Z " fill="#000000"/><text fill="#000000" font-family="sans-serif" font-size="14" lengthAdjust="spacing" textLength="35" x="584.75" y="904.432">SHA1</text><line style="stroke:#181818;stroke-width:0.5;" x1="23.5" x2="1148.5" y1="915" y2="915"/><rect fill="none" height="6" style="stroke:#C82930;stroke-width:1.0;" width="6" x="30.5" y="927.034"/><text fill="#000000" font-family="sans-serif" font-size="14" lengthAdjust="spacing" textLength="192" x="42.5" y="933.9659">_sizeOutputHash : std::size_t</text><rect fill="none" height="6" style="stroke:#C82930;stroke-width:1.0;" width="6" x="30.5" y="946.1019"/><text fill="#000000" font-family="sans-serif" font-size="14" lengthAdjust="spacing" textLength="298" x="42.5" y="953.0339">_inputVpadded : std::vector&lt;unsigned char&gt;</text><rect fill="none" height="6" style="stroke:#C82930;stroke-width:1.0;" width="6" x="30.5" y="965.1698"/><text fill="#000000" font-family="sans-serif" font-size="14" lengthAdjust="spacing" textLength="89" x="42.5" y="972.1018">_h0 : uint32_t</text><rect fill="none" height="6" style="stroke:#C82930;stroke-width:1.0;" width="6" x="30.5" y="984.2377"/><text fill="#000000" font-family="sans-serif" font-size="14" lengthAdjust="spacing" textLength="89" x="42.5" y="991.1697">_h1 : uint32_t</text><rect fill="none" height="6" style="stroke:#C82930;stroke-width:1.0;" width="6" x="30.5" y="1003.3056"/><text fill="#000000" font-family="sans-serif" font-size="14" lengthAdjust="spacing" textLength="89" x="42.5" y="1010.2376">_h2 : uint32_t</text><rect fill="none" height="6" style="stroke:#C82930;stroke-width:1.0;" width="6" x="30.5" y="1022.3735"/><text fill="#000000" font-family="sans-serif" font-size="14" lengthAdjust="spacing" textLength="89" x="42.5" y="1029.3055">_h3 : uint32_t</text><rect fill="none" height="6" style="stroke:#C82930;stroke-width:1.0;" width="6" x="30.5" y="1041.4415"/><text fill="#000000" font-family="sans-serif" font-size="14" lengthAdjust="spacing" textLength="89" x="42.5" y="1048.3734">_h4 : uint32_t</text><rect fill="none" height="6" style="stroke:#C82930;stroke-width:1.0;" width="6" x="30.5" y="1060.5094"/><text fill="#000000" font-family="sans-serif" font-size="14" lengthAdjust="spacing" textLength="89" x="42.5" y="1067.4414">_ml : uint64_t</text><line style="stroke:#181818;stroke-width:0.5;" x1="23.5" x2="1148.5" y1="1075.5433" y2="1075.5433"/><ellipse cx="33.5" cy="1090.5773" fill="#84BE84" rx="3" ry="3" style="stroke:#038048;stroke-width:1.0;"/><text fill="#000000" font-family="sans-serif" font-size="14" lengthAdjust="spacing" textLength="43" x="42.5" y="1094.5093">SHA1()</text><ellipse cx="33.5" cy="1109.6452" fill="#84BE84" rx="3" ry="3" style="stroke:#038048;stroke-width:1.0;"/><text fill="#000000" font-family="sans-serif" font-size="14" lengthAdjust="spacing" textLength="51" x="42.5" y="1113.5772">~SHA1()</text><ellipse cx="33.5" cy="1128.7131" fill="#84BE84" rx="3" ry="3" style="stroke:#038048;stroke-width:1.0;"/><text fill="#000000" font-family="sans-serif" font-size="14" lengthAdjust="spacing" textLength="477" x="42.5" y="1132.6451">hash(inputV : std::vector&lt;unsigned char&gt;) : std::vector&lt;unsigned char&gt;</text><ellipse cx="33.5" cy="1147.781" fill="#84BE84" rx="3" ry="3" style="stroke:#038048;stroke-width:1.0;"/><text fill="#000000" font-family="sans-serif" font-size="14" lengthAdjust="spacing" textLength="1101" x="42.5" y="1151.713">hash(inputV : std::vector&lt;unsigned char&gt;, h0 : uint32_t, h1 : uint32_t, h2 : uint32_t, h3 : uint32_t, h4 : uint32_t, messageSize: std::size_t) : std::vector&lt;unsigned char&gt;</text><rect fill="#F24D5C" height="6" style="stroke:#C82930;stroke-width:1.0;" width="6" x="30.5" y="1163.849"/><text fill="#000000" font-family="sans-serif" font-size="14" lengthAdjust="spacing" textLength="280" x="42.5" y="1170.7809">initialization(sizeInputV : std::size_t) : void</text><rect fill="#F24D5C" height="6" style="stroke:#C82930;stroke-width:1.0;" width="6" x="30.5" y="1182.9169"/><text fill="#000000" font-family="sans-serif" font-size="14" lengthAdjust="spacing" textLength="735" x="42.5" y="1189.8489">initialization(sizeInputV : std::size_t, h0 : uint32_t, h1 : uint32_t, h2 : uint32_t, h3 : uint32_t, h4 : uint32_t) : void</text><rect fill="#F24D5C" height="6" style="stroke:#C82930;stroke-width:1.0;" width="6" x="30.5" y="1201.9848"/><text fill="#000000" font-family="sans-serif" font-size="14" lengthAdjust="spacing" textLength="384" x="42.5" y="1208.9168">preProcessing(inputV : std::vector&lt;unsigned char&gt;) : void</text><rect fill="#F24D5C" height="6" style="stroke:#C82930;stroke-width:1.0;" width="6" x="30.5" y="1221.0527"/><text fill="#000000" font-family="sans-serif" font-size="14" lengthAdjust="spacing" textLength="122" x="42.5" y="1227.9847">processing() : void</text><rect fill="#F24D5C" height="6" style="stroke:#C82930;stroke-width:1.0;" width="6" x="30.5" y="1240.1206"/><text fill="#000000" font-family="sans-serif" font-size="14" lengthAdjust="spacing" textLength="304" x="42.5" y="1247.0526">leftRotate(value : uint32_t, bits : int) : uint32_t</text></g><!--class Server--><g id="elem_Server"><rect codeLine="16" fill="#F1F1F1" height="181.4754" id="Server" rx="2.5" ry="2.5" style="stroke:#181818;stroke-width:0.5;" width="613" x="13.5" y="401"/><ellipse cx="294.25" cy="417" fill="#ADD1B2" rx="11" ry="11" style="stroke:#181818;stroke-width:1.0;"/><path d="M297.2188,422.6406 Q296.6406,422.9375 296,423.0781 Q295.3594,423.2344 294.6563,423.2344 Q292.1563,423.2344 290.8281,421.5938 Q289.5156,419.9375 289.5156,416.8125 Q289.5156,413.6875 290.8281,412.0313 Q292.1563,410.375 294.6563,410.375 Q295.3594,410.375 296,410.5313 Q296.6563,410.6875 297.2188,410.9844 L297.2188,413.7031 Q296.5938,413.125 296,412.8594 Q295.4063,412.5781 294.7813,412.5781 Q293.4375,412.5781 292.75,413.6563 Q292.0625,414.7188 292.0625,416.8125 Q292.0625,418.9063 292.75,419.9844 Q293.4375,421.0469 294.7813,421.0469 Q295.4063,421.0469 296,420.7813 Q296.5938,420.5 297.2188,419.9219 L297.2188,422.6406 Z " fill="#000000"/><text fill="#000000" font-family="sans-serif" font-size="14" lengthAdjust="spacing" textLength="43" x="314.75" y="422.432">Server</text><line style="stroke:#181818;stroke-width:0.5;" x1="14.5" x2="625.5" y1="433" y2="433"/><rect fill="none" height="6" style="stroke:#C82930;stroke-width:1.0;" width="6" x="21.5" y="445.034"/><text fill="#000000" font-family="sans-serif" font-size="14" lengthAdjust="spacing" textLength="119" x="33.5" y="451.9659">_debugFlag : bool</text><rect fill="none" height="6" style="stroke:#C82930;stroke-width:1.0;" width="6" x="21.5" y="464.1019"/><text fill="#000000" font-family="sans-serif" font-size="14" lengthAdjust="spacing" textLength="174" x="33.5" y="471.0339">_debugFlagExtreme : bool</text><rect fill="none" height="6" style="stroke:#C82930;stroke-width:1.0;" width="6" x="21.5" y="483.1698"/><text fill="#000000" font-family="sans-serif" font-size="14" lengthAdjust="spacing" textLength="267" x="33.5" y="490.1018">_keyServer : std::vector&lt;unsigned char&gt;</text><rect fill="none" height="6" style="stroke:#C82930;stroke-width:1.0;" width="6" x="21.5" y="502.2377"/><text fill="#000000" font-family="sans-serif" font-size="14" lengthAdjust="spacing" textLength="306" x="33.5" y="509.1697">_sha : std::shared_ptr&lt;MyCryptoLibrary::SHA&gt;</text><line style="stroke:#181818;stroke-width:0.5;" x1="14.5" x2="625.5" y1="517.2717" y2="517.2717"/><ellipse cx="24.5" cy="532.3056" fill="#84BE84" rx="3" ry="3" style="stroke:#038048;stroke-width:1.0;"/><text fill="#000000" font-family="sans-serif" font-size="14" lengthAdjust="spacing" textLength="164" x="33.5" y="536.2376">Server(debugFlag : bool)</text><ellipse cx="24.5" cy="551.3735" fill="#84BE84" rx="3" ry="3" style="stroke:#038048;stroke-width:1.0;"/><text fill="#000000" font-family="sans-serif" font-size="14" lengthAdjust="spacing" textLength="59" x="33.5" y="555.3055">~Server()</text><ellipse cx="24.5" cy="570.4415" fill="#84BE84" rx="3" ry="3" style="stroke:#038048;stroke-width:1.0;"/><text fill="#000000" font-family="sans-serif" font-size="14" lengthAdjust="spacing" textLength="587" x="33.5" y="574.3734">validateMac(msg : std::vector&lt;unsigned char&gt;, mac : std::vector&lt;unsigned char&gt;) : bool</text></g><!--class Attacker--><g id="elem_Attacker"><rect codeLine="58" fill="#F1F1F1" height="314.9508" id="Attacker" rx="2.5" ry="2.5" style="stroke:#181818;stroke-width:0.5;" width="790" x="105" y="7"/><ellipse cx="468.25" cy="23" fill="#ADD1B2" rx="11" ry="11" style="stroke:#181818;stroke-width:1.0;"/><path d="M471.2188,28.6406 Q470.6406,28.9375 470,29.0781 Q469.3594,29.2344 468.6563,29.2344 Q466.1563,29.2344 464.8281,27.5938 Q463.5156,25.9375 463.5156,22.8125 Q463.5156,19.6875 464.8281,18.0313 Q466.1563,16.375 468.6563,16.375 Q469.3594,16.375 470,16.5313 Q470.6563,16.6875 471.2188,16.9844 L471.2188,19.7031 Q470.5938,19.125 470,18.8594 Q469.4063,18.5781 468.7813,18.5781 Q467.4375,18.5781 466.75,19.6563 Q466.0625,20.7188 466.0625,22.8125 Q466.0625,24.9063 466.75,25.9844 Q467.4375,27.0469 468.7813,27.0469 Q469.4063,27.0469 470,26.7813 Q470.5938,26.5 471.2188,25.9219 L471.2188,28.6406 Z " fill="#000000"/><text fill="#000000" font-family="sans-serif" font-size="14" lengthAdjust="spacing" textLength="55" x="488.75" y="28.432">Attacker</text><line style="stroke:#181818;stroke-width:0.5;" x1="106" x2="894" y1="39" y2="39"/><rect fill="none" height="6" style="stroke:#C82930;stroke-width:1.0;" width="6" x="113" y="51.034"/><text fill="#000000" font-family="sans-serif" font-size="14" lengthAdjust="spacing" textLength="119" x="125" y="57.9659">_debugFlag : bool</text><rect fill="none" height="6" style="stroke:#C82930;stroke-width:1.0;" width="6" x="113" y="70.1019"/><text fill="#000000" font-family="sans-serif" font-size="14" lengthAdjust="spacing" textLength="174" x="125" y="77.0339">_debugFlagExtreme : bool</text><rect fill="none" height="6" style="stroke:#C82930;stroke-width:1.0;" width="6" x="113" y="89.1698"/><text fill="#000000" font-family="sans-serif" font-size="14" lengthAdjust="spacing" text-decoration="underline" textLength="150" x="125" y="96.1018">_shaDigestLength : int</text><rect fill="none" height="6" style="stroke:#C82930;stroke-width:1.0;" width="6" x="113" y="108.2377"/><text fill="#000000" font-family="sans-serif" font-size="14" lengthAdjust="spacing" textLength="203" x="125" y="115.1697">_messageLocation : std::string</text><rect fill="none" height="6" style="stroke:#C82930;stroke-width:1.0;" width="6" x="113" y="127.3056"/><text fill="#000000" font-family="sans-serif" font-size="14" lengthAdjust="spacing" textLength="322" x="125" y="134.2376">_sha1 : std::shared_ptr&lt;MyCryptoLibrary::SHA1&gt;</text><rect fill="none" height="6" style="stroke:#C82930;stroke-width:1.0;" width="6" x="113" y="146.3735"/><text fill="#000000" font-family="sans-serif" font-size="14" lengthAdjust="spacing" textLength="221" x="125" y="153.3055">_server : std::shared_ptr&lt;Server&gt;</text><rect fill="none" height="6" style="stroke:#C82930;stroke-width:1.0;" width="6" x="113" y="165.4415"/><text fill="#000000" font-family="sans-serif" font-size="14" lengthAdjust="spacing" textLength="314" x="125" y="172.3734">_msgParsed : MessageFormat::MessageParsed</text><line style="stroke:#181818;stroke-width:0.5;" x1="106" x2="894" y1="180.4754" y2="180.4754"/><ellipse cx="116" cy="195.5094" fill="#84BE84" rx="3" ry="3" style="stroke:#038048;stroke-width:1.0;"/><text fill="#000000" font-family="sans-serif" font-size="14" lengthAdjust="spacing" textLength="399" x="125" y="199.4414">Attacker(server : std::shared_ptr&lt;Server&gt;, debugFlag : bool)</text><ellipse cx="116" cy="214.5773" fill="#84BE84" rx="3" ry="3" style="stroke:#038048;stroke-width:1.0;"/><text fill="#000000" font-family="sans-serif" font-size="14" lengthAdjust="spacing" textLength="71" x="125" y="218.5093">~Attacker()</text><ellipse cx="116" cy="233.6452" fill="#84BE84" rx="3" ry="3" style="stroke:#038048;stroke-width:1.0;"/><text fill="#000000" font-family="sans-serif" font-size="14" lengthAdjust="spacing" textLength="251" x="125" y="237.5772">lengthExtensionAttackAtSHA1 () : void</text><rect fill="#F24D5C" height="6" style="stroke:#C82930;stroke-width:1.0;" width="6" x="113" y="249.7131"/><text fill="#000000" font-family="sans-serif" font-size="14" lengthAdjust="spacing" text-decoration="underline" textLength="764" x="125" y="256.6451">extractionSHA1InternalState(macByteFormat : std::vector&lt;unsigned char&gt;) : SHA1InternalState::SHA1InternalState</text><rect fill="#F24D5C" height="6" style="stroke:#C82930;stroke-width:1.0;" width="6" x="113" y="268.781"/><text fill="#000000" font-family="sans-serif" font-size="14" lengthAdjust="spacing" textLength="432" x="125" y="275.713">extractMessage(messageLocation : std::string) const : std::string</text><rect fill="#F24D5C" height="6" style="stroke:#C82930;stroke-width:1.0;" width="6" x="113" y="287.849"/><text fill="#000000" font-family="sans-serif" font-size="14" lengthAdjust="spacing" textLength="536" x="125" y="294.7809">computeSHA1padding(message : std::string) const : std::vector&lt;unsigned char&gt;</text><rect fill="#F24D5C" height="6" style="stroke:#C82930;stroke-width:1.0;" width="6" x="113" y="306.9169"/><text fill="#000000" font-family="sans-serif" font-size="14" lengthAdjust="spacing" textLength="518" x="125" y="313.8489">tamperMessageTry(messageParsed : MessageFormat::MessageParsed) : bool</text></g><!--reverse link SHA to SHA1--><g id="link_SHA_SHA1"><path codeLine="55" d="M420.9526,819.2782 C436.0226,841.9882 444.21,854.33 463.03,882.68 " fill="none" id="SHA-backto-SHA1" style="stroke:#181818;stroke-width:1.0;"/><polygon fill="none" points="411,804.28,415.9532,822.5957,425.952,815.9607,411,804.28" style="stroke:#181818;stroke-width:1.0;"/><text fill="#000000" font-family="sans-serif" font-size="13" lengthAdjust="spacing" textLength="45" x="443" y="848.897">inherits</text></g><!--link Server to SHA--><g id="link_Server_SHA"><path codeLine="76" d="M338.55,582.05 C345.64,616.27 352.3123,648.4949 358.6523,679.0849 " fill="none" id="Server-to-SHA" style="stroke:#181818;stroke-width:1.0;"/><polygon fill="#181818" points="359.87,684.96,361.9603,675.3355,358.8553,680.064,354.1267,676.9591,359.87,684.96" style="stroke:#181818;stroke-width:1.0;"/><text fill="#000000" font-family="sans-serif" font-size="13" lengthAdjust="spacing" textLength="31" x="349" y="626.897">has a</text></g><!--link Attacker to SHA1--><g id="link_Attacker_SHA1"><path codeLine="77" d="M611.66,322.2 C624.96,347.52 636.47,374.24 644,401 C688.65,559.6 667.3256,741.1929 638.2756,876.9329 " fill="none" id="Attacker-to-SHA1" style="stroke:#181818;stroke-width:1.0;"/><polygon fill="#181818" points="637.02,882.8,642.8149,874.8364,638.0664,877.9107,634.992,873.1622,637.02,882.8" style="stroke:#181818;stroke-width:1.0;"/><text fill="#000000" font-family="sans-serif" font-size="13" lengthAdjust="spacing" textLength="31" x="670" y="626.897">has a</text></g><!--link Attacker to Server--><g id="link_Attacker_Server"><path codeLine="78" d="M413.16,322.29 C398.24,349.23 386.1073,371.1414 372.5973,395.5314 " fill="none" id="Attacker-to-Server" style="stroke:#181818;stroke-width:1.0;"/><polygon fill="#181818" points="369.69,400.78,377.55,394.8453,372.1127,396.4062,370.5519,390.9689,369.69,400.78" style="stroke:#181818;stroke-width:1.0;"/><text fill="#000000" font-family="sans-serif" font-size="13" lengthAdjust="spacing" textLength="31" x="395" y="366.897">has a</text></g><!--SRC=[jLPDRzim3BtxLmWzELWpp6snWn44w3wA5cYnOYbs3HHPiuNQaY7HGTEk- -sZOzcn_96aGESRzIZoYKyYBMd6JKuP9tVS61hpAwKp2kJ58_Ynb1hJGMOp0xfWC9zRf_BxG9Q5Jab834HXY0v2ncqmC_4UaB81yDLxzJpPq5jSNmOt4hYMD5q01UvGxADZD8NZPTEkEGEbPmM2vsTBcEy8sF1ShxcsWQPa6V5L4L-bj3pKIgcqj_xz2JJFU0T-v1iRgPDN6X5B7X6MK3sllKr2cxBWEe-MEUZPtUQhtkIWRiLAKxq9GpnwjSMhJbXbyBiK9nR-Q_7QNjDKH5YAEyhybag3p4v9Iwf1ZqbzOaUx3kUkSgWLNQ5QjASMWfPeJRwpa52J-4Bc1VmwoEj0nP6nUvzQJ4ern3F_KG1ckiQSZJ2ukeIsNqKcfr64qGycjPkIJ-XQtpu72CQ0ip7WV0ou606or0AVBn1mgn_qoX_yh_g_BU0fSMg6Pk2QPwvvxfeNZfbL3Mw1OZgwJeuLK4W10X_ICmMXf5_kld7Ei8ktLY9w-yvtFEu0YLppUwqOLW6Rxx5ozc8q0GRGbF-6dwfikJusd88xz5O232wWFUbUKViejqtYptHQlSkGd0YPS8tRJdOz-XA0iiTtwDBORB-9c1kuvJA6f696NWoo5-orzh9tvbQnhN830wmA5HpPmuDTttT6H6jRrRaRF-pMzrIRRPjnHdGOMhE2FTlfwmBvXnASaj7XqSIeLz9jZR2G72-8aXL-2LkTt8im9Vnfs-FHhJUkVHmiNpPG_sCSkdkz_LK9E_y7hc8skosDlrU_2M5A6XWKbQaCtmSlyvLTlhpmDjRU6Fj6FT0ivzeoUz2REk1HyhP7hlsxc4xdtPdxiNn2-72mln9wuZMFPSGr6FDj_bzgz1y0]--></g></svg>